/* XPM */
static char *_0fa0aaa100a415fbb8bbd5348b425ee_1[] = {
/* columns rows colors chars-per-pixel */
"32 32 2 1 ",
"  c None",
". c black",
/* pixels */
"                                ",
"               ..               ",
"               ..               ",
"             ......             ",
"               ..               ",
"               ..               ",
"               ..               ",
"              ....              ",
"             ......             ",
"            ...  ...            ",
"          ....    ....          ",
"         ....  ..  ....         ",
"        ....  ....  ....        ",
"       .... ........ ....       ",
"     ....  ..........  ....     ",
"    ....  ............  ....    ",
"   ....  ..............  ....   ",
"    ..  ................  ..    ",
"       ..................       ",
"       ..................       ",
"       ..................       ",
"       ..................       ",
"    .. ........  ........ ..    ",
"  .... .......    ....... ....  ",
"...... ......      ...... ......",
"...... ......      ...... ......",
"...... ......      ...... ......",
"...... ......      ...... ......",
"...... ......      ...... ......",
"...... ......      ...... ......",
"...... ......      ...... ......",
"                                "
};
