/* XPM */
static const char *bookIcon_xpm[] = {
/* columns rows colors chars-per-pixel */
"16 16 56 1 ",
"  c None",
". c #A42A0E",
"X c #A42B0F",
"o c #A52B0F",
"O c #A72B0F",
"+ c #A42C0F",
"@ c #A62F15",
"# c #A92D10",
"$ c #A63117",
"% c #A73117",
"& c #C73313",
"* c #DA3814",
"= c #DB3814",
"- c #DA3815",
"; c #DA3915",
": c #DB3915",
"> c #F55632",
", c #F45633",
"< c #F55633",
"1 c #F75633",
"2 c #FA5935",
"3 c #FB5935",
"4 c #FC5A35",
"5 c #FC5A36",
"6 c #FD5A36",
"7 c #FD5B36",
"8 c #FB5D3B",
"9 c #FC6B3C",
"0 c #FC703E",
"q c #FC713E",
"w c #FD713E",
"e c #FB6241",
"r c #F96546",
"t c #FC7A42",
"y c #F67155",
"u c #F47358",
"i c #F67358",
"p c #FC8445",
"a c #FD8445",
"s c #FEB155",
"d c #FFB155",
"f c #F08774",
"g c #F08977",
"h c #FEC85E",
"j c #FFC85E",
"k c #B9969B",
"l c #ED9A8D",
"z c #EA9D92",
"x c #EB9D92",
"c c #C5A4A5",
"v c #C3DBF7",
"b c #C4DCF7",
"n c #C5DCF7",
"m c #D6EBFB",
"M c #D8EBFD",
"N c #D9EBFD",
/* pixels */
"   =3555555555  ",
"  ==35qqqqq955  ",
"  ==35jjjjjd55  ",
"  ==35jjjjjd55  ",
"  ==35pppppt55  ",
"  ==3555555555  ",
"  ==3555555555  ",
"  ==35rxxxl555  ",
"  ==35egggf555  ",
"  ==358iiiy555  ",
"  ==3555555555  ",
"  ==,,,,,,,,,,  ",
"  &#$$$$$$$$$@  ",
"  .cNNNNNNNNNm  ",
"  .knnnnnnnnnv  ",
"   ..........+  "
};
