/* XPM */
static const char *fileIcon_xpm[] = {
/* columns rows colors chars-per-pixel */
"16 16 32 1 ",
"  c None",
". c #393F44",
"X c #3D4144",
"o c #4A5258",
"O c #515659",
"+ c #6C7881",
"@ c #6E7B86",
"# c #788086",
"$ c #788087",
"% c #7A8187",
"& c #7C8286",
"* c #7C8287",
"= c #7C8388",
"- c #7C8489",
"; c #728CA2",
": c #728CA3",
"> c #97A5B2",
", c #97A5B3",
"< c #A4ACB2",
"1 c #A4ACB3",
"2 c #B3DAFE",
"3 c #C1CBD2",
"4 c #C5CFD7",
"5 c #C6D0D6",
"6 c #CCD8E0",
"7 c #CCD8E1",
"8 c #CFD9E1",
"9 c #CFDAE0",
"0 c #E7F4FE",
"q c #E7F4FF",
"w c #EAF6FE",
"e c #EAF6FF",
/* pixels */
"  O***=5**X     ",
"  1eeeeeee%:    ",
"  1eeeeeee%2:   ",
"  1eeeeeee3+@.  ",
"  1eeeeeeeee0>  ",
"  18********8>  ",
"  1eeeeeeeee0>  ",
"  18********8>  ",
"  1eeeeeeeee0>  ",
"  18********8>  ",
"  1eeeeeeeee0>  ",
"  18********8>  ",
"  1eeeeeeeee0>  ",
"  1eeeeeeeee0>  ",
"  1eeeeeeeee0>  ",
"  O-4*******%o  "
};
