/* XPM */
static const char *folderIcon_xpm[] = {
/* columns rows colors chars-per-pixel */
"16 16 32 1 ",
"  c None",
". c #00BBD2",
"X c #00BBD3",
"o c #00BBD4",
"O c #08BDD4",
"+ c #08BDD5",
"@ c #1BC0D6",
"# c #1BC0D7",
"$ c #49C8DE",
"% c #4CCEDF",
"& c #4DCEDF",
"* c #4DCFDF",
"= c #4CCEE0",
"- c #4CCFE0",
"; c #4DCFE0",
": c #4DCFE1",
"> c #4CD0E0",
", c #4DD0E0",
"< c #4CD0E1",
"1 c #4DD0E1",
"2 c #78D1E5",
"3 c #7BD1E6",
"4 c #9DD8EB",
"5 c #C1DEF0",
"6 c #C5DFF0",
"7 c #C5DFF1",
"8 c #CCDFF3",
"9 c #D3E0F2",
"0 c #D3E0F5",
"q c #D4E1F4",
"w c #D4E1F5",
"e c #D5E1F5",
/* pixels */
"                ",
" XooX      0    ",
" XXXXX  q9qqq   ",
" XXXX@38qqqqq$X ",
" ++@3577777774+ ",
"%:::::::::::::::",
"1:::::::::::::::",
"%:::::::::::::::",
"1::::::::::::::1",
"1:::::::::::::::",
":::::::::::::::1",
"1::::::::::::::%",
"::::::::::::::::",
"1:::::::::::::::",
" :::::::::::::: ",
"                "
};
