/* XPM */
static const char *researchIcon_xpm[] = {
/* columns rows colors chars-per-pixel */
"16 16 116 2 ",
"   c None",
".  c #050507",
"X  c #080809",
"o  c #09090D",
"O  c #121219",
"+  c #16161C",
"@  c #1C1D27",
"#  c #1E202B",
"$  c #1F202B",
"%  c #20212C",
"&  c #22232D",
"*  c #252633",
"=  c #262735",
"-  c #262834",
";  c #262835",
":  c #272835",
">  c #262936",
",  c #272936",
"<  c #282936",
"1  c #282937",
"2  c #2A2B37",
"3  c #2C2D34",
"4  c #272C38",
"5  c #282A38",
"6  c #292B39",
"7  c #2B2E3D",
"8  c #2A2F3D",
"9  c #2D2E3D",
"0  c #34343D",
"q  c #39383D",
"w  c #52222F",
"e  c #6F2237",
"r  c #51432B",
"t  c #554A2D",
"y  c #705932",
"u  c #2E3240",
"i  c #2E3947",
"p  c #3E3D42",
"a  c #36414A",
"s  c #37444C",
"d  c #284654",
"f  c #2E4E55",
"g  c #2C5057",
"h  c #295569",
"j  c #265F77",
"k  c #22657F",
"l  c #48474F",
"z  c #474754",
"x  c #465D62",
"c  c #5D5C66",
"v  c #6A5966",
"b  c #605F6B",
"n  c #715665",
"m  c #41666D",
"M  c #4F6C6F",
"N  c #597B7D",
"B  c #72707C",
"V  c #72717C",
"C  c #72707D",
"Z  c #72717D",
"A  c #861932",
"S  c #861933",
"D  c #8F7833",
"F  c #937B32",
"G  c #937B33",
"H  c #D1234B",
"J  c #D19E45",
"K  c #D39F46",
"L  c #D39F47",
"P  c #2D728C",
"I  c #2D728D",
"U  c #757480",
"Y  c #757481",
"T  c #787684",
"R  c #787685",
"E  c #807E8C",
"W  c #3396BC",
"Q  c #3396BD",
"!  c #5E8285",
"~  c #5F8487",
"^  c #499A9E",
"/  c #668E90",
"(  c #679092",
")  c #62C5CB",
"_  c #6FC8CC",
"`  c #7DC1C4",
"'  c #7EECF2",
"]  c #82808F",
"[  c #8C8A99",
"{  c #8D8B9A",
"}  c #8D8B9B",
"|  c #9694A4",
" . c #9896A7",
".. c #9F9DAE",
"X. c #9F9DAF",
"o. c #A09DAE",
"O. c #A09EB1",
"+. c #86BBBD",
"@. c #A2A0B2",
"#. c #A9A7BA",
"$. c #ADAABE",
"%. c #B0ADC1",
"&. c #86F6FB",
"*. c #98F5F9",
"=. c #A4E5E8",
"-. c #AFFBFF",
";. c #B0F5F8",
":. c #B2F7FA",
">. c #B2F8FB",
",. c #B3FCFE",
"<. c #B4FCFE",
"1. c #B5FCFE",
"2. c #B5FCFF",
"3. c #CDCBE1",
"4. c #D4D1E9",
"5. c #D8D5ED",
/* pixels */
"              + - - %           ",
"            5 s ! ( m 7 @       ",
"c $.#.#.] 1 M >.2.2.,._ i $     ",
"%.@.R R 3 a :.2.2.2.2.-.^ 1     ",
"C ..C C 1 N 2.2.2.2.2.2.' -     ",
"C o.C C 9 ~ 2.2.2.2.2.2.&.4     ",
"C ..C ..z x 2.2.2.2.2.2.) -     ",
"C 5.5.4.q 7 +.2.2.2.2.*.g %     ",
"C 5.5.3.D r u / =.:.` f 5 X     ",
"C v n O.F L 0 - = * - $ . - o   ",
"C A H E F L [ j k l         - o ",
"C A H E F L [ P W Y           O ",
"C A H E F L [ P W Y             ",
"C A H E F L [ P W Y             ",
"C w e [ t y  .d h |             ",
"p C C C C C C C C b             "
};
