/* XPM */
static const char *sectionIcon_xpm[] = {
/* columns rows colors chars-per-pixel */
"16 16 52 1 ",
"  c None",
". c #EB6460",
"X c #EA6663",
"o c #EB6663",
"O c #EA6664",
"+ c #F67B67",
"@ c #F77B67",
"# c #F87B68",
"$ c #F97B68",
"% c #F97C68",
"& c #F97E6A",
"* c #F7806C",
"= c #F6816C",
"- c #F7816C",
"; c #F68270",
": c #F78270",
"> c #F58675",
", c #EF9D94",
"< c #CEA6B6",
"1 c #D4B0B9",
"2 c #E9B2B0",
"3 c #EAB2B0",
"4 c #E8B8B8",
"5 c #E8B8B9",
"6 c #B2DBFF",
"7 c #B3DBFF",
"8 c #B2DCFF",
"9 c #B3DCFF",
"0 c #B4DCFF",
"q c #B5DCFF",
"w c #B6DCFF",
"e c #B7DCFF",
"r c #B6DDFF",
"t c #B7DDFF",
"y c #B9DEFF",
"u c #BDDFFF",
"i c #BDE0FF",
"p c #C2E2FF",
"a c #C3E3FF",
"s c #DCE4F3",
"d c #D2E9FF",
"f c #D6EBFF",
"g c #D7EBFF",
"h c #DAEBFD",
"j c #DBEBFD",
"k c #D8EBFF",
"l c #D8ECFF",
"z c #D9ECFF",
"x c #DBECFE",
"c c #DAEDFF",
"v c #DBEDFF",
"b c #DCEDFF",
/* pixels */
"                ",
"                ",
" 0lllllbylllbll ",
"O6u9606l06069il-",
"X600606l060600g-",
"X600606k060600g-",
"X600906l060900g-",
"X600606l060600g-",
"X600606l060600g-",
"X600606l060600g-",
"X600606l060600g-",
"X6pdksll0lskdpl-",
"X<2,:%>41>%:,24%",
"      @$$@      ",
"                ",
"                "
};
