/* XPM */
static const char *trashIcon_xpm[] = {
/* columns rows colors chars-per-pixel */
"16 16 78 1 ",
"  c None",
". c #454E78",
"X c #5E668C",
"o c #616686",
"O c #616687",
"+ c #676D8D",
"@ c #696E8F",
"# c #6C728F",
"$ c #6D728F",
"% c #6E7693",
"& c #737692",
"* c #747995",
"= c #747B97",
"- c #787D97",
"; c #797D97",
": c #787E99",
"> c #7C809F",
", c #7E849F",
"< c #84879C",
"1 c #85879C",
"2 c #8086A0",
"3 c #878CA4",
"4 c #898DAB",
"5 c #8C92A8",
"6 c #8E91AD",
"7 c #9093AE",
"8 c #9097AD",
"9 c #9094AF",
"0 c #9698B2",
"q c #9A9DB4",
"w c #9A9CB5",
"e c #9B9CB5",
"r c #9B9DB6",
"t c #9D9EB7",
"y c #9D9FB8",
"u c #9CA1B3",
"i c #9CA0B4",
"p c #9EA3B5",
"a c #9FA3B7",
"s c #9EA0B8",
"d c #A1A5B7",
"f c #A1A2BA",
"g c #A2A4BB",
"h c #A3A4BB",
"j c #A4A7B8",
"k c #A5A7B8",
"l c #A4A7BA",
"z c #A5A6BD",
"x c #A6A8BE",
"c c #A8ABBE",
"v c #A8ACBE",
"b c #AAACBF",
"n c #A8ABC0",
"m c #AAADC0",
"M c #ABADC0",
"N c #AAACC2",
"B c #ADAEC1",
"V c #ACAEC2",
"C c #ACB1C1",
"Z c #AFB0C4",
"A c #B1B2C5",
"S c #B4B6C8",
"D c #B7B6C9",
"F c #B6B7CA",
"G c #B7B7CA",
"H c #B9BACC",
"J c #BABACC",
"K c #BABBCD",
"L c #BBBBCD",
"P c #C6C6D5",
"I c #C7C9D2",
"U c #C8C8D6",
"Y c #CFCEDB",
"T c #D1D1DD",
"R c #D5D7DC",
"E c #E6E9E9",
"W c #EEEFEE",
"Q c #EFEFEE",
/* pixels */
"                ",
"    CRIa        ",
"    EWWW9db     ",
"   O5jjj2uja+   ",
"  $<<<<<<<<<<$  ",
"  O*;;;;;;;;&O  ",
"   rKKPYTUKK,   ",
"   0KKKKKKKK:   ",
"   9KKKhfKKF*   ",
"   4KKhzyZKA%   ",
"   >KKrVM7KV@   ",
"   XKFsZFnFc    ",
"   .KKx6rtKj    ",
"    FKKKKKKa    ",
"    rMMMMMb3    ",
"                "
};
