/* XPM */
static char *a95b054694334fb6a01e568e2299eb91_2[] = {
/* columns rows colors chars-per-pixel */
"48 48 125 2 ",
"   c None",
".  c black",
"X  c #000001",
"o  c #010101",
"O  c #020202",
"+  c gray1",
"@  c #030405",
"#  c #040404",
"$  c #050504",
"%  c gray2",
"&  c #050506",
"*  c #060606",
"=  c #090B0C",
"-  c #121315",
";  c #131414",
":  c #131517",
">  c #151616",
",  c #151617",
"<  c #161617",
"1  c #13171A",
"2  c #161718",
"3  c #161719",
"4  c #17191A",
"5  c #17191B",
"6  c #14181C",
"7  c #151A1E",
"8  c #191A1B",
"9  c #191C1E",
"0  c #1E2021",
"q  c #1D2022",
"w  c #1D2023",
"e  c #1F2022",
"r  c #1F2023",
"t  c #1B2126",
"y  c #202122",
"u  c #202123",
"i  c #252D34",
"p  c #252D35",
"a  c #323436",
"s  c #393C3F",
"d  c #3D4042",
"f  c #3C4146",
"g  c #414446",
"h  c #414447",
"j  c #45484B",
"k  c #46494C",
"l  c #46494D",
"z  c #494D50",
"x  c #43515F",
"c  c #606569",
"v  c #656B6F",
"b  c #666B6F",
"n  c #676C70",
"m  c #676C71",
"M  c #6E7478",
"N  c #747A7E",
"B  c #747A7F",
"V  c #75808A",
"C  c #7F858A",
"Z  c #7C868F",
"A  c #6B8299",
"S  c #81878C",
"D  c #838A8E",
"F  c #838A8F",
"G  c #858B91",
"H  c #868D92",
"J  c #898F95",
"K  c #899196",
"L  c #959DA3",
"P  c #84A1BB",
"I  c #87A4BF",
"U  c #A1A9AF",
"Y  c #A2AAB1",
"T  c #A6AFB4",
"R  c #A6AFB5",
"E  c #ACB5BC",
"W  c #8CAAC6",
"Q  c #8CAAC7",
"!  c #91B0CD",
"~  c #A9B8C6",
"^  c #AEBECC",
"/  c #B5BFC6",
"(  c #BCC6CD",
")  c #BDC6CD",
"_  c #BACCDB",
"`  c #B1D7FA",
"'  c #B1D8FC",
"]  c #B3DAFE",
"[  c #C5CFD6",
"{  c #C5CFD7",
"}  c #C3D1DB",
"|  c #CAD4DC",
" . c #CAD5DC",
".. c #CAD5DD",
"X. c #CBD5DD",
"o. c #CCD7DE",
"O. c #CDD8DE",
"+. c #CDD8DF",
"@. c #C3D5E6",
"#. c #D2DDE5",
"$. c #D3DEE6",
"%. c #D4DEE6",
"&. c #D4DEE7",
"*. c #D4DFE8",
"=. c #D7E2EA",
"-. c #D7E2EB",
";. c #D8E2EB",
":. c #DAE5EE",
">. c #DAE5EF",
",. c #DDE9F1",
"<. c #D7EBFD",
"1. c #D8ECFE",
"2. c #E0EBF4",
"3. c #E2EDF6",
"4. c #E2EEF7",
"5. c #E5F1FA",
"6. c #E1F1FE",
"7. c #E2F2FE",
"8. c #E2F2FF",
"9. c #E7F3FC",
"0. c #E8F4FD",
"q. c #E9F5FE",
"w. c #E9F5FF",
"e. c #EAF6FE",
"r. c #EAF6FF",
/* pixels */
"              . # # # # # # # # # # # # #     0 # # # # # # # . .                               ",
"            # g C F F F F F F F F F F F G o.r.E F F F F F F S s . .                             ",
"            8 ) r.r.r.r.r.r.r.r.r.r.r.r.r.r.r.r.r.r.r.r.r.r.5.b 6 1 .                           ",
"          . u &.r.r.r.r.r.r.r.r.r.r.r.r.r.r.r.r.r.r.r.r.r.r.5.b i ! t .                         ",
"          . u &.r.r.r.r.r.r.r.r.r.r.r.r.r.r.r.r.r.r.r.r.r.r.5.b i ] P t .                       ",
"          . u &.r.r.r.r.r.r.r.r.r.r.r.r.r.r.r.r.r.r.r.r.r.r.5.b i ] ] ! 1 .                     ",
"          . u &.r.r.r.r.r.r.r.r.r.r.r.r.r.r.r.r.r.r.r.r.r.r.5.b i ] ] ] ! t .                   ",
"          . u &.r.r.r.r.r.r.r.r.r.r.r.r.r.r.r.r.r.r.r.r.r.r.5.b i ] ] ] ] P t .                 ",
"          . u &.r.r.r.r.r.r.r.r.r.r.r.r.r.r.r.r.r.r.r.r.r.r.9.M 6 ` ] ] ] ] ! 1 .               ",
"          . u &.r.r.r.r.r.r.r.r.r.r.r.r.r.r.r.r.r.r.r.r.r.r.r.Y ; x I W W W W A = .             ",
"          . u &.r.r.r.r.r.r.r.r.r.r.r.r.r.r.r.r.r.r.r.r.r.r.r.4.J a 5 < < < < ; - . .           ",
"          . u &.r.r.r.r.r.r.r.r.r.r.r.r.r.r.r.r.r.r.r.r.r.r.r.r.9.#. . . . .} _ ~ 9 .           ",
"          . u &.r.r.r.r.r.r.r.r.r.r.r.r.r.r.r.r.r.r.r.r.r.r.r.r.r.r.r.r.r.r.7.1.@.0 .           ",
"          . u &.r.r.r.r.r.r.r.r.r.r.r.r.r.r.r.r.r.r.r.r.r.r.r.r.r.r.r.r.r.r.7.1.@.0 .           ",
"          . u &.r.r.r.r.r.r.r.r.r.r.r.r.r.r.r.r.r.r.r.r.r.r.r.r.r.r.r.r.r.r.7.1.@.0 .           ",
"          . u &.r.r.9.L B B B B B B B B B B B B B B B B B B B B B B B B L 9.7.1.@.0 .           ",
"          . u &.r.r.4.c d d d d d d d d d d d d d d d d d d d d d d d d c 4.7.1.@.0 .           ",
"          . u &.r.r.r.,.=.=.=.=.=.=.=.=.=.=.=.=.=.=.=.=.=.=.=.=.=.=.=.=.,.r.7.1.@.0 .           ",
"          . u &.r.r.r.r.r.r.r.r.r.r.r.r.r.r.r.r.r.r.r.r.r.r.r.r.r.r.r.r.r.r.7.1.@.0 .           ",
"          . u &.r.r.r.r.r.r.r.r.r.r.r.r.r.r.r.r.r.r.r.r.r.r.r.r.r.r.r.r.r.r.7.1.@.0 .           ",
"          . u &.r.r.r.r.r.r.r.r.r.r.r.r.r.r.r.r.r.r.r.r.r.r.r.r.r.r.r.r.r.r.7.1.@.0 .           ",
"          . u &.r.r.r.[ / / / / / / / / / / / / / / / / / / / / / / / / [ r.7.1.@.0 .           ",
"          . u &.r.r.4.j 2 2 2 2 2 2 2 2 2 2 2 2 2 2 2 2 2 2 2 2 2 2 2 2 j 4.7.1.@.0 .           ",
"          . u &.r.r.r.#. . . . . . . . . . . . . . . . . . . . . . . . .#.r.7.1.@.0 .           ",
"          . u &.r.r.r.r.r.r.r.r.r.r.r.r.r.r.r.r.r.r.r.r.r.r.r.r.r.r.r.r.r.r.7.1.@.0 .           ",
"          . u &.r.r.r.r.r.r.r.r.r.r.r.r.r.r.r.r.r.r.r.r.r.r.r.r.r.r.r.r.r.r.7.1.@.0 .           ",
"          . u &.r.r.r.r.r.r.r.r.r.r.r.r.r.r.r.r.r.r.r.r.r.r.r.r.r.r.r.r.r.r.7.1.@.0 .           ",
"          . u &.r.r.r.*.+.+.+.+.+.+.+.+.+.+.+.+.+.+.+.+.+.+.+.+.+.+.+.+.*.r.7.1.@.0 .           ",
"          . u &.r.r.4.z 0 0 0 0 0 0 0 0 0 0 0 0 0 0 0 0 0 0 0 0 0 0 0 0 z 4.7.1.@.0 .           ",
"          . u &.r.r.r.) R R R R R R R R R R R R R R R R R R R R R R R R ) r.7.1.@.0 .           ",
"          . u &.r.r.r.r.r.r.r.r.r.r.r.r.r.r.r.r.r.r.r.r.r.r.r.r.r.r.r.r.r.r.7.1.@.0 .           ",
"          . u &.r.r.r.r.r.r.r.r.r.r.r.r.r.r.r.r.r.r.r.r.r.r.r.r.r.r.r.r.r.r.7.1.@.0 .           ",
"          . u &.r.r.r.r.r.r.r.r.r.r.r.r.r.r.r.r.r.r.r.r.r.r.r.r.r.r.r.r.r.r.7.1.@.0 .           ",
"          . u &.r.r.r.2.:.:.:.:.:.:.:.:.:.:.:.:.:.:.:.:.:.:.:.:.:.:.:.:.2.r.7.1.@.0 .           ",
"          . u &.r.r.4.n k k k k k k k k k k k k k k k k k k k k k k k k n 4.7.1.@.0 .           ",
"          . u &.r.r.9.K b b b b b b b b b b b b b b b b b b b b b b b b K 9.7.1.@.0 .           ",
"          . u &.r.r.r.r.r.r.r.r.r.r.r.r.r.r.r.r.r.r.r.r.r.r.r.r.r.r.r.r.r.r.7.1.@.0 .           ",
"          . u &.r.r.r.r.r.r.r.r.r.r.r.r.r.r.r.r.r.r.r.r.r.r.r.r.r.r.r.r.r.r.7.1.@.0 .           ",
"          . u &.r.r.r.r.r.r.r.r.r.r.r.r.r.r.r.r.r.r.r.r.r.r.r.r.r.r.r.r.r.r.7.1.@.0 .           ",
"          . u &.r.r.r.r.r.r.r.r.r.r.r.r.r.r.r.r.r.r.r.r.r.r.r.r.r.r.r.r.r.r.7.1.@.0 .           ",
"          . u &.r.r.r.r.r.r.r.r.r.r.r.r.r.r.r.r.r.r.r.r.r.r.r.r.r.r.r.r.r.r.7.1.@.0 .           ",
"          . u &.r.r.r.r.r.r.r.r.r.r.r.r.r.r.r.r.r.r.r.r.r.r.r.r.r.r.r.r.r.r.7.1.@.0 .           ",
"          . u &.r.r.r.r.r.r.r.r.r.r.r.r.r.r.r.r.r.r.r.r.r.r.r.r.r.r.r.r.r.r.7.1.@.0 .           ",
"          . u &.r.r.r.r.r.r.r.r.r.r.r.r.r.r.r.r.r.r.r.r.r.r.r.r.r.r.r.r.r.r.7.1.@.0 .           ",
"          . u &.r.r.r.r.r.r.r.r.r.r.r.r.r.r.r.r.r.r.r.r.r.r.r.r.r.r.r.r.r.r.7.1.@.0 .           ",
"            8 ) r.r.r.r.r.r.r.r.r.r.r.r.r.r.r.r.r.r.r.r.r.r.r.r.r.r.r.r.r.r.7.<.^ 5             ",
"            # g C F F H ;.r.U F F F F F F F F F F F F F F F F F F F F F F F Z V f @             ",
"              . # # # #     < # # # # # # # # # # # # # # # # # # # # # # # # # .               "
};
