/* XPM */
static char *a95b054694334fb6a01e568e2299eb91_1[] = {
/* columns rows colors chars-per-pixel */
"32 32 74 1 ",
"  c None",
". c black",
"X c #070808",
"o c #07090B",
"O c #080809",
"+ c #08090A",
"@ c #08090B",
"# c #0D0E0F",
"$ c #0E0F10",
"% c #0E0F11",
"& c #0F1010",
"* c #101112",
"= c #101416",
"- c #161B1F",
"; c #2B343D",
": c #313539",
"> c #35383A",
", c #34383D",
"< c #3D4042",
"1 c #37434E",
"2 c #46494C",
"3 c #46494D",
"4 c #4A4E51",
"5 c #575F66",
"6 c #575F67",
"7 c #5F6366",
"8 c #5F6367",
"9 c #546677",
"0 c #64696C",
"q c #64696D",
"w c #656B6F",
"e c #6D7276",
"r c #6D7277",
"t c #767D82",
"y c #808B97",
"u c #879097",
"i c #8A9196",
"p c #8B9296",
"a c #8B9297",
"s c #90989D",
"d c #90989E",
"f c #949BA0",
"g c #949BA1",
"h c #959CA2",
"j c #9DA5AB",
"k c #84A1BB",
"l c #A6AFB5",
"z c #AAB2B9",
"x c #ABB3BB",
"c c #ABB4BA",
"v c #B2BBC2",
"b c #B2BBC3",
"n c #BBC4CC",
"m c #BDC7CE",
"M c #BDC7CF",
"N c #B2D9FD",
"B c #B3DAFE",
"V c #C0C8D0",
"C c #C2CCD3",
"Z c #D3DEE6",
"A c #D7E2EB",
"S c #DBE6EF",
"D c #D2E6F6",
"F c #D8ECFE",
"G c #D8ECFF",
"H c #E0EBF4",
"J c #E4EFF8",
"K c #E4F0F8",
"L c #E5F1FA",
"P c #E3F2FF",
"I c #E5F3FE",
"U c #E5F3FF",
"Y c #EAF6FE",
"T c #EAF6FF",
/* pixels */
"    .O%%%%%%%&zt%%%%#.          ",
"    >KTTTTTTTTTTTTTTSXO         ",
"    8TTTTTTTTTTTTTTTS-kO        ",
"    8TTTTTTTTTTTTTTTS-BkO       ",
"    8TTTTTTTTTTTTTTTS-BBkO      ",
"    8TTTTTTTTTTTTTTTH=BBBkO     ",
"    8TTTTTTTTTTTTTTTT41999;.    ",
"    8TTTTTTTTTTTTTTTTKjaauy,    ",
"    8TTTTTTTTTTTTTTTTTTTTIF6    ",
"    8TTTTTTTTTTTTTTTTTTTTIF6    ",
"    8TTh2222222222222222hIF6    ",
"    8TTZvvvvvvvvvvvvvvvvZIF6    ",
"    8TTTTTTTTTTTTTTTTTTTTIF6    ",
"    8TTTTTTTTTTTTTTTTTTTTIF6    ",
"    8TTzrrrrrrrrrrrrrrrrcIF6    ",
"    8TTmaaaaaaaaaaaaaaaamIF6    ",
"    8TTTTTTTTTTTTTTTTTTTTIF6    ",
"    8TTTTTTTTTTTTTTTTTTTTIF6    ",
"    8TTCggggggggggggggggCIF6    ",
"    8TTlwwwwwwwwwwwwwwwwlIF6    ",
"    8TTTTTTTTTTTTTTTTTTTTIF6    ",
"    8TTTTTTTTTTTTTTTTTTTTIF6    ",
"    8TTAnnnnnnnnnnnnnnnnAIF6    ",
"    8TTs<<<<<<<<<<<<<<<<sIF6    ",
"    8TTTTTTTTTTTTTTTTTTTTIF6    ",
"    8TTTTTTTTTTTTTTTTTTTTIF6    ",
"    8TTTTTTTTTTTTTTTTTTTTIF6    ",
"    8TTTTTTTTTTTTTTTTTTTTIF6    ",
"    8TTTTTTTTTTTTTTTTTTTTIF6    ",
"    8TTTTTTTTTTTTTTTTTTTTIF6    ",
"    >JTTTTTTTTTTTTTTTTTTTPD:    ",
"    .O%*Vw%%%%%%%%%%%%%%%%X.    "
};
