/* XPM */
static char *_e3a6dfe71034e99ab141d29cea5f949_1[] = {
/* columns rows colors chars-per-pixel */
"32 32 2 1 ",
"  c None",
". c black",
/* pixels */
"                                ",
"               ..               ",
"              ....              ",
"              ....              ",
"             .....              ",
"             ......             ",
"             ......             ",
"            ........            ",
"            ........            ",
"           ..........           ",
"           ..........           ",
"           ..  ......           ",
"          ...  .......          ",
"          ..    ......          ",
"         ...    .......         ",
"         ...    .......         ",
"         ..      .......        ",
"        ...      .......        ",
"        ................        ",
"        .................       ",
"       ..................       ",
"       ..          .......      ",
"      ...          .......      ",
"      ...           ......      ",
"      ..            .......     ",
"     ...            .......     ",
"     ...             .......    ",
"    ...              .......    ",
"   .....            .........   ",
"...........      ...............",
"....   ....      .....    ......",
"                                "
};
