/* XPM */
static char *_e3a6dfe71034e99ab141d29cea5f949_2[] = {
/* columns rows colors chars-per-pixel */
"48 48 2 1 ",
"  c None",
". c black",
/* pixels */
"                                                ",
"                                                ",
"                      ....                      ",
"                     .....                      ",
"                     ......                     ",
"                    .......                     ",
"                    ........                    ",
"                    ........                    ",
"                   .........                    ",
"                   ..........                   ",
"                  ...........                   ",
"                  ............                  ",
"                  ............                  ",
"                 ..............                 ",
"                 ..............                 ",
"                 ... ..........                 ",
"                ....  ..........                ",
"                ....  ..........                ",
"               ....    ..........               ",
"               ....    ..........               ",
"               ....     ..........              ",
"              ....      ..........              ",
"              ....      ..........              ",
"             ....        ..........             ",
"             ....        ..........             ",
"             ....         ..........            ",
"            ....          ..........            ",
"            ........................            ",
"            .........................           ",
"           ..........................           ",
"           ...........................          ",
"          ....              ..........          ",
"          ....              ..........          ",
"          ....               ..........         ",
"         ....                ..........         ",
"         ....                 ..........        ",
"        ....                  ..........        ",
"        ....                  ..........        ",
"        ....                   ..........       ",
"       ....                    ..........       ",
"       ....                     ..........      ",
"      .....                     ..........      ",
"     .......                   ............     ",
"  ..............            ................... ",
".................         ......................",
".................         ......................",
"                                                ",
"                                                "
};
