/* XPM */
static char *_1cb5d21317448289a694ecee6a95f32_2[] = {
/* columns rows colors chars-per-pixel */
"48 48 202 2 ",
"   c None",
".  c #EC635D",
"X  c #EC625E",
"o  c #ED625E",
"O  c #EB6461",
"+  c #EA6663",
"@  c #E96967",
"#  c #E46F6F",
"$  c #E56F6F",
"%  c #F47364",
"&  c #F87D67",
"*  c #F2786A",
"=  c #F77B68",
"-  c #F77E6A",
";  c #F77E6B",
":  c #F77F6C",
">  c #F87B69",
",  c #F97B69",
"<  c #F87C68",
"1  c #F97C68",
"2  c #F97C69",
"3  c #F87D69",
"4  c #F87D6A",
"5  c #F87E6A",
"6  c #F5806F",
"7  c #F7816F",
"8  c #EF897D",
"9  c #F68270",
"0  c #F58776",
"q  c #F58777",
"w  c #F48878",
"e  c #F58878",
"r  c #F48A7A",
"t  c #F48B7C",
"y  c #EB9188",
"u  c #F29286",
"i  c #F1978D",
"p  c #ECA59F",
"a  c #EDA59F",
"s  c #CEA5B7",
"d  c #CBABBE",
"f  c #ECAAA6",
"g  c #EAB0AE",
"h  c #E6B8BA",
"j  c #E8B9BA",
"k  c #CFB2C1",
"l  c #D0B6C3",
"z  c #E7BEC0",
"x  c #E6BFC1",
"c  c #8DCBFF",
"v  c #8ECBFF",
"b  c #8FCBFF",
"n  c #8FCCFF",
"m  c #90CCFF",
"M  c #91CCFF",
"N  c #91CDFF",
"B  c #92CDFF",
"V  c #93CDFF",
"C  c #93CEFF",
"Z  c #94CEFF",
"A  c #95CEFF",
"S  c #96CFFF",
"D  c #97CFFF",
"F  c #98CFFF",
"G  c #97D0FF",
"H  c #98D0FF",
"J  c #99D0FF",
"K  c #9AD0FF",
"L  c #9BD0FF",
"P  c #9AD1FF",
"I  c #9BD1FF",
"U  c #9CD1FF",
"Y  c #9DD1FF",
"T  c #9DD2FF",
"R  c #9ED2FF",
"E  c #9FD2FF",
"W  c #9FD3FF",
"Q  c #A0D3FF",
"!  c #A1D3FF",
"~  c #A0D4FF",
"^  c #A1D4FF",
"/  c #A2D4FF",
"(  c #A3D4FF",
")  c #A3D5FF",
"_  c #A4D5FF",
"`  c #A5D5FF",
"'  c #A6D5FF",
"]  c #A6D6FF",
"[  c #A7D6FF",
"{  c #A8D6FF",
"}  c #A9D6FF",
"|  c #A8D7FF",
" . c #A9D7FF",
".. c #AAD7FF",
"X. c #ABD7FF",
"o. c #AAD8FF",
"O. c #ABD8FF",
"+. c #ACD8FF",
"@. c #ADD8FF",
"#. c #ACD9FF",
"$. c #ADD9FF",
"%. c #AED9FF",
"&. c #AFD9FF",
"*. c #AFDAFF",
"=. c #BBD3F1",
"-. c #B0D9FF",
";. c #B0DAFF",
":. c #B1DAFF",
">. c #B2DAFF",
",. c #B2DBFF",
"<. c #B3DBFF",
"1. c #B6DBFD",
"2. c #B3DCFF",
"3. c #B4DCFF",
"4. c #B5DCFF",
"5. c #B5DDFF",
"6. c #B6DCFF",
"7. c #B6DDFF",
"8. c #B7DDFF",
"9. c #B8DEFF",
"0. c #B9DEFF",
"q. c #BADEFF",
"w. c #BBDEFF",
"e. c #BADFFF",
"r. c #BBDFFF",
"t. c #BCDEFF",
"y. c #BDDEFF",
"u. c #BCDFFF",
"i. c #BDDFFF",
"p. c #BCE0FF",
"a. c #BDE0FF",
"s. c #BEE0FF",
"d. c #BFE0FF",
"f. c #BFE1FF",
"g. c #E5C3C8",
"h. c #E5C4C8",
"j. c #E3CCD3",
"k. c #E3CDD5",
"l. c #E2D1D9",
"z. c #E1D4DE",
"x. c #DFDDEA",
"c. c #DEDFEC",
"v. c #C1D5F0",
"b. c #C0E1FF",
"n. c #C1E1FF",
"m. c #C0E2FF",
"M. c #C1E2FF",
"N. c #C2E2FF",
"B. c #C3E2FF",
"V. c #C3E3FF",
"C. c #C5E3FF",
"Z. c #C6E3FF",
"A. c #C6E4FF",
"S. c #C7E4FF",
"D. c #C8E5FF",
"F. c #C9E5FF",
"G. c #CAE5FF",
"H. c #CBE5FF",
"J. c #CAE6FF",
"K. c #CBE6FF",
"L. c #CCE6FF",
"P. c #CDE6FF",
"I. c #CCE7FF",
"U. c #CDE7FF",
"Y. c #CEE7FF",
"T. c #CFE7FF",
"R. c #CEE8FF",
"E. c #CFE8FF",
"W. c #DEE1F0",
"Q. c #DEE2F0",
"!. c #DEE3F2",
"~. c #DCE6F5",
"^. c #D0E8FF",
"/. c #D1E8FF",
"(. c #D1E9FF",
"). c #D2E8FF",
"_. c #D2E9FF",
"`. c #D3E9FF",
"'. c #D2EAFF",
"]. c #D3EAFF",
"[. c #D4E9FF",
"{. c #D4EAFF",
"}. c #D5EAFF",
"|. c #D6EAFF",
" X c #D7EAFF",
".X c #D6EBFF",
"XX c #D7EBFF",
"oX c #DCE8F8",
"OX c #DBEBFD",
"+X c #D8EBFF",
"@X c #D9EBFF",
"#X c #DBECFD",
"$X c #D8ECFF",
"%X c #D9ECFF",
"&X c #DAECFF",
"*X c #DBECFF",
"=X c #DAEDFF",
"-X c #DBEDFF",
";X c #DBEEFF",
":X c #DCEDFF",
">X c #DCEEFF",
",X c #DDEEFF",
/* pixels */
"                                                                                                ",
"                                                                                                ",
"                                                                                                ",
"                                                                                                ",
"                                                                                                ",
"                        :X-X:X:X-X-X-X-X                :X-X-X-X:X:X-X:X                        ",
"                  -X-X-X-X-X-X-X-X-X-X-X-X:X        a.-X-X-X-X-X-X-X-X-X-X-X-X                  ",
"      5.5.5. X-X-X-X-X-X-X-X-X-X-X-X-X-X-X-X-X    5.t.-X-X-X-X-X-X-X-X-X-X-X-X-X-X-X-X-X-X      ",
"      5.5.5. X-X-X-X-X-X-X-X-X-X-X-X-X-X-X-X-X-X5.5.t.-X-X-X-X-X-X-X-X-X-X-X-X-X-X-X-X-X-X      ",
". . $ 5.5.5. X-X-X-X@X`.P.0.' Y P Y O.B.`.-X-X-X5.5.0.`.B.O.Y P Y ' 0.K.`.@X-X-X-X-X-X-X-Xr < & ",
". . $ 5.5.5.K.S.a.5. .P n G ' O.*. .Q V A K.-X-X5.5.*.A V Q  .*.O.' P n P  .5.a.S.P.-X-X-Xr < < ",
". . $ 5.5.' V V n v Y <.S.`. X-X-X@X XP.a. X-X-X5.5.5.a.P. X@X-X-X X`.S.<.Y v n V A t.-X-Xr < < ",
". . $ 5.5.*.<.a.K.@X-X XP.a.*.( ( ' 2.S.`.-X-X-X5.5.0.`.S.<.' ( ( *.a.P. X-X@XK.a.5.`.-X-Xr < < ",
". . $ 5.5.5.P.K.B.0.*.Y V A Q '  .' Y V P K.-X-X5.5.*.P V Y '  .' Y A V Y *.0.B.K.`.-X-X-Xr < < ",
". . $ 5.5.' A V V v A *.B.`. X X X X`.K.5.`.-X-X5.5.5.5.K.`. X X X X`.B.*.A v V V A a.-X-Xr < < ",
". . $ 5.5.*.O.5.B.`.-X X`.C.5. . .O.0.K. X-X-X-X5.5.0. XK.0.*. . .5.C.`. X-X`.B.5.*.P.-X-Xr < < ",
". . $ 5.5.5.`.R.S.a.<.( A V Y ( ' Q F V Y P.-X-X5.5.<.Y V F Q ' ( Y V A ( <.a.S.R. X-X-X-Xr < < ",
". . $ 5.5.' A A V v V ' t.P.`. X X X`.S.*.`.-X-X5.5.5.*.S.`. X X X`.P.t.' V v V V A B.-X-Xr < < ",
". . $ 5.5.*.' *.0.K.-X X`.K.t.<.*.5.B.P. X-X-X-X5.5.t. XR.B.5.*.<.t.K.`. X-XP.0.*.' K.-X-Xr < < ",
". . $ 5.5.5. X`.P.a.5. .P V F Y Y Y A V ( P.-X-X5.5.<.( V A Y Q Y F V P  .5.B.P.`.-X-X-X-Xr < < ",
". . $ 5.5. .A A V V v Y 5.K.`. X X`.`.B. .P.-X-X5.5.<. .B.`.`.`. X`.K.5.Y v V V A P C.-X-Xr < < ",
". . $ 5.5. .Y  .5.C. X-X XP.B.0.5.0.S.`. X-X-X-X5.5.t. X`.S.0.5.0.B.P. X-X XC.5. .Y S.-X-Xr < < ",
". . $ 5.5.5. X X`.C.0.*.Y V V P Y P V A ' R.-X-X5.5.<.' A V P Y P V V Y *.0.C.`. X-X-X-X-Xr < < ",
". . $ 5.5. .P F A V v P *.C.`.`.`.`.P.t.( P.-X-X5.5.<.( t.P.`.`.`.`.C.*.G v V A F Y K.-X-Xr < < ",
". . $ 5.5. .P ( *.a.`.-X X`.S.a.a.B.P.`.-X-X-X-X5.5.t.-X`.P.B.a.a.K.`. X-X`.a.*.( P B.-X-Xr < < ",
". . $ 5.5.5. X-X XK.a.<.( V V A A A v P  .`.-X-X5.5.<. .P v A A A V V W <.a.K.`.-X-X-X-X-Xr < < ",
". . $ 5.5.*.( P A V v V  .a.P.`.`.`.K.5.P K.-X-X5.5.*.P 5.K.`.`.`.P.B. .V v V A P ' K.-X-Xr < < ",
". . $ 5.5.' A P ' 5.K.-X X`.P.S.B.K.R.`.-X-X-X-X5.5.t.-X`.R.K.B.S.P.`. X-XK.5.' P A B.-X-Xr < < ",
". . $ 5.5.5.`.-X@XP.B.5.' A v V V V V Y *.`.-X-X5.5.5.*.Y V V V V v A ' 5.B.P.@X-X X-X-X-Xr < < ",
". . $ 5.5.*. .Q P A V v ( 0.K.R.`.R.S.*.A K.-X-X5.5.*.V *.S.R.`.`.K.0.( v V A P ( O.P.-X-Xr < < ",
". . $ 5.5.' A F Q <.B. X@X`.R.P.K.P.`. X-X-X-X-X5.5.t.-X X`.P.K.P.R.`.@X XB.<.Q F A a.-X-Xr < < ",
". . $ 5.5.5.P.@X-X`.S.0. .P V v n v A Q <.`.-X-X5.5.5.<.Q A v n v V P  .0.S.`.-X@X`.-X-X-Xr < < ",
". . $ 5.5.<.<. .P A V v P <.S.P.R.P.B.' n C.-X-X5.5.O.n ' B.P.R.P.S.<.P v V A P  .<.`.-X-Xr < < ",
". . $ 5.5.' A A P  .a.`.-X-X-X-X-X-X-X-X-X-X-X-X5.5.t.-X-X-X-X-X-X-X-X-X`.a. .P A A t.-X-Xr < < ",
". . $ 5.5.5.K.`.-X-X-X-X-X-X-X-X-X-X-X-X-X-X-X-X5.5.t.-X-X-X-X-X-X-X-X-X-X-X-X-X`.R.-X-X-Xr < < ",
". . $ 5.5.5. X-X-X-X-X-X-X-Xc.l.k.z.~.-X-X-X-X-X5.5.t.-X-X~.z.k.l.c.-X-X-X-X-X-X-X-X-X-X-Xr < < ",
". . $ 5.5.5. X@XoX!.x.j.f r < < < < - i g.!.@X-X5.1.v.h.i - < < < < r f j.x.!.oX@X-X-X-X-Xr < < ",
". . @ s d k h g a i q < < < < < < < < < < u x !.=.l y < < < < < < < < < < q i a g j x x j 9 < < ",
". . . O O * - < < < < < < < < < < < < < < < 7 t 8 7 < < < < < < < < < < < < < < < < : : < < < < ",
". . . . . % < < < < < < < < < < < < < < < < < < < < < < < < < < < < < < < < < < < < < < < < < < ",
"                                        = < < < < < < <                                         ",
"                                          < < < < < <                                           ",
"                                            > < < >                                             ",
"                                                                                                ",
"                                                                                                ",
"                                                                                                ",
"                                                                                                ",
"                                                                                                "
};
