/* XPM */
static char *_1cb5d21317448289a694ecee6a95f32_1[] = {
/* columns rows colors chars-per-pixel */
"32 32 153 2 ",
"   c None",
".  c #EC625E",
"X  c #ED625E",
"o  c #EC625F",
"O  c #E86A68",
"+  c #E96A68",
"@  c #E96A69",
"#  c #F06B61",
"$  c #F67C67",
"%  c #F77C67",
"&  c #F87C67",
"*  c #F97C67",
"=  c #F77D69",
"-  c #F77F6C",
";  c #F97B68",
":  c #F87C68",
">  c #F97C68",
",  c #F97C69",
"<  c #F87D69",
"1  c #EB7872",
"2  c #F7806D",
"3  c #F68270",
"4  c #F68371",
"5  c #F58675",
"6  c #F29286",
"7  c #E09E9D",
"8  c #EFA098",
"9  c #EEA39C",
"0  c #EAB1AF",
"q  c #8FCCFF",
"w  c #90CCFF",
"e  c #90CDFF",
"r  c #91CDFF",
"t  c #92CDFF",
"y  c #93CDFF",
"u  c #94CEFF",
"i  c #95CEFF",
"p  c #96CFFF",
"a  c #97CFFF",
"s  c #98CFFF",
"d  c #99D0FF",
"f  c #9AD0FF",
"g  c #9AD1FF",
"h  c #9BD1FF",
"j  c #9CD1FF",
"k  c #9CD2FF",
"l  c #9DD2FF",
"z  c #9ED2FF",
"x  c #9FD2FF",
"c  c #9FD3FF",
"v  c #A0D3FF",
"b  c #A1D3FF",
"n  c #A0D4FF",
"m  c #A1D4FF",
"M  c #A2D4FF",
"N  c #A3D4FF",
"B  c #A4D5FF",
"V  c #A5D5FF",
"C  c #A6D5FF",
"Z  c #A6D6FF",
"A  c #A7D6FF",
"S  c #A8D6FF",
"D  c #A8D7FF",
"F  c #A9D7FF",
"G  c #AAD7FF",
"H  c #ABD7FF",
"J  c #AAD8FF",
"K  c #ABD8FF",
"L  c #ACD8FF",
"P  c #ADD8FF",
"I  c #ACD9FF",
"U  c #ADD9FF",
"Y  c #AED9FF",
"T  c #AFD9FF",
"R  c #AEDAFF",
"E  c #AFDAFF",
"W  c #B0DAFF",
"Q  c #B1DAFF",
"!  c #B1DBFF",
"~  c #B2DAFF",
"^  c #B2DBFF",
"/  c #B3DBFF",
"(  c #B4DCFF",
")  c #B5DCFF",
"_  c #B6DDFF",
"`  c #B7DDFF",
"'  c #B8DDFF",
"]  c #B9DDFF",
"[  c #B8DEFF",
"{  c #B9DEFF",
"}  c #BADEFF",
"|  c #BBDEFF",
" . c #BADFFF",
".. c #BBDFFF",
"X. c #BCDFFF",
"o. c #BDDFFF",
"O. c #BDE0FF",
"+. c #BEE0FF",
"@. c #BFE0FF",
"#. c #E3CCD3",
"$. c #E1D5DF",
"%. c #C5C9E0",
"&. c #DEDBE7",
"*. c #DFDBE7",
"=. c #DFDCE9",
"-. c #DEE1EF",
";. c #DFE1EF",
":. c #C0E1FF",
">. c #C1E1FF",
",. c #C1E2FF",
"<. c #C2E2FF",
"1. c #C3E2FF",
"2. c #C4E3FF",
"3. c #C5E3FF",
"4. c #C6E4FF",
"5. c #C7E4FF",
"6. c #C8E5FF",
"7. c #C9E5FF",
"8. c #CAE5FF",
"9. c #CAE6FF",
"0. c #CBE6FF",
"q. c #CCE6FF",
"w. c #CDE7FF",
"e. c #CEE7FF",
"r. c #CFE7FF",
"t. c #CEE8FF",
"y. c #CFE8FF",
"u. c #DCE7F7",
"i. c #D0E8FF",
"p. c #D1E8FF",
"a. c #D1E9FF",
"s. c #D2E9FF",
"d. c #D3E9FF",
"f. c #D3EAFF",
"g. c #D4EAFF",
"h. c #D5EAFF",
"j. c #D6EAFF",
"k. c #D6EBFF",
"l. c #D7EBFF",
"z. c #DAEAFB",
"x. c #DBEAFB",
"c. c #D9EBFE",
"v. c #D8EBFF",
"b. c #D9EBFF",
"n. c #D8ECFF",
"m. c #D9ECFF",
"M. c #DBECFE",
"N. c #DAECFF",
"B. c #DAEDFF",
"V. c #DBEDFF",
"C. c #DCEDFF",
"Z. c #DCEEFF",
"A. c #DDEEFF",
/* pixels */
"                                                                ",
"                                                                ",
"                                                                ",
"                  Z.n.Z.n.            n.Z.n.Z.                  ",
"        n.Z.n.n.n.n.n.n.n.n.n.    } n.n.n.n.n.n.n.Z.n.Z.        ",
"    ) ) v.n.n.n.n.n.n.n.n.n.n.Z.) } n.n.n.n.n.n.n.n.n.n.n.n.    ",
"o O ) ) v.n.n.5.W c i i N } n.n.) } } N i i c W 5.n.n.n.n.n.3 : ",
"o O ) Y N d w c ) 7.d.s.4.Y s.n.) W Y 4.s.s.7.) c q d A y.n.3 : ",
"o O ) W <.q.n.7.) N d d A O.n.n.) } O.A d d N ) 7.n.q.4.d.n.3 : ",
"o O ) Y A c w d W 4.y.q.<.D s.n.) W D <.q.y.4.W d w c D s.Z.3 : ",
"o O ) W <.7.n.y.} A c c D <.n.n.) } <.D c c A } y.n.7.<.d.n.3 : ",
"o O ) W K N w i Y <.q.7.o.A s.n.) W A o.7.7.<.Y i w N Y s.n.3 : ",
"o O ) W } 5.d.s.O.K v N Y 4.n.n.) } 4.Y N v K O.s.d.5.o.d.n.3 : ",
"o O ) W Y A i w D O.5.5.} v s.n.) W v } 5.5.O.D w i A W s.n.3 : ",
"o O ) W ) <.s.d.<.Y A A W 7.n.n.) } 7.W A A Y <.d.s.<.} s.n.3 : ",
"o O ) W W D d w A } <.<.) c s.n.) W c ) <.<.} A w d D ) d.n.3 : ",
"o O ) W W O.q.v.4.W D K ) q.n.n.) } q.) K D W 4.v.q.O.) s.n.3 : ",
"o O ) W ) Y c w v ) O.O.W s s.n.) W s W O.O.) v w c Y } d.n.3 : ",
"o O ) W Y } 7.d.7.) Y Y } s.n.n.) } s.} Y Y ) 7.d.7.} W s.n.3 : ",
"o O ) W } W N w c W } } K i s.n.) W i K } } W c w N W O.d.n.3 : ",
"o O ) Y Y ) 4.d.q.} W W O.d.n.n.) } d.O.W W } q.d.4.) Y s.n.3 : ",
"o O ) W O.) A i s Y ) ) A w s.n.) W w A ) ) Y s i D ) <.v.n.3 : ",
"o O ) Y A W <.s.n.n.Z.Z.Z.n.n.n.) } n.Z.n.n.n.n.s.<.W A y.n.3 : ",
"o O ) ) v.n.n.n.n.u.*.=.x.Z.n.n.) } n.x.=.&.u.n.n.n.n.n.n.n.3 : ",
"o O ) ) v.-.#.0 6 : : : 2 8 $.n.) %.8 2 : : : 6 0 #.-.n.n.n.3 : ",
"o o O 1 - : : : : : : : : : : 9 7 = : : : : : : : : : - 5 3 : : ",
"o o o # ; & & & & & & & & : : : : : : & & & & & & & & & & & & : ",
"                            $ : : $                             ",
"                              : :                               ",
"                                                                ",
"                                                                ",
"                                                                "
};
