/* XPM */
static char *_6e0b21f137b4685975dafdcfcdfdb80_4[] = {
/* columns rows colors chars-per-pixel */
"32 32 2 1 ",
"  c None",
". c black",
/* pixels */
"                                ",
"                        ..      ",
"                        ......  ",
"                     .. ......  ",
"                    ...  .....  ",
"                   ...     ...  ",
"                  ...  ... ...  ",
"                 ...  .... ...  ",
"                ...  .....      ",
"                    .....  ..   ",
"               ..  .....  ...   ",
"               ... ....  ...    ",
"               ... ...  ...     ",
"               ...     ...      ",
"            .. ......  ..       ",
"             ........  .        ",
"           .  ........          ",
"           ..  ..               ",
"         .. ..  ..              ",
"          .. ..                 ",
"        .  .. ..                ",
"       .    ..                  ",
"      .  ..  .                  ",
"     .  ....                    ",
"    .  ....                     ",
"   .  ....                      ",
"  .  ....                       ",
" .  ....                        ",
"   ....                         ",
"  ....                          ",
" ....                           ",
"                                "
};
