/* XPM */
static char *_6e0b21f137b4685975dafdcfcdfdb80_2[] = {
/* columns rows colors chars-per-pixel */
"64 64 2 1 ",
"  c None",
". c black",
/* pixels */
"                                                                ",
"                                                                ",
"                                                                ",
"                                               ...........      ",
"                                            .  .............    ",
"                                           ..  .............    ",
"                                          ...  .............    ",
"                                         ....   ............    ",
"                                        .....   ............    ",
"                                       ......         .......   ",
"                                      ......           ......   ",
"                                     ......    .....   ......   ",
"                                    ......    ......   ......   ",
"                                   ......    .......   ......   ",
"                                  ......    ........   ......   ",
"                                 ......    .........   ......   ",
"                                ......    ..........            ",
"                               ......    ...........            ",
"                                  ..    ...........   ..        ",
"                                       ...........   ......     ",
"                                      ...........   ......      ",
"                              ......  ..........   ......       ",
"                              ......  .........   ......        ",
"                              ......  ........   ......         ",
"                              ......  .......   ......          ",
"                              ......   .....   ......           ",
"                              ......          ......            ",
"                         .    ......         ......             ",
"                         ..   .............  .....              ",
"                         ...  .............  ....               ",
"                          ... .............  ...                ",
"                           ................  ..                 ",
"                       .    ...............                     ",
"                      ...    ...    .......                     ",
"                      ....    ...                               ",
"                 ...   ....    ...                              ",
"                 ....   ....    ...                             ",
"                  ....   ....    ...                            ",
"                   ....   ....    ..                            ",
"                    ....   ....                                 ",
"                ..   ....   ....                                ",
"               ...    ....   ..                                 ",
"              ...      ....                                     ",
"             ...   ..   ....                                    ",
"            ...   ....   ....                                   ",
"           ...   ......   ...                                   ",
"          ...   ........   .                                    ",
"         ...   ........                                         ",
"        ...   ........                                          ",
"       ...   ........                                           ",
"      ...   ........                                            ",
"     ...   ........                                             ",
"    ...   ........                                              ",
"   ...   ........                                               ",
"  ...   ........                                                ",
"  ..   ........                                                 ",
"      ........                                                  ",
"     ........                                                   ",
"    ........                                                    ",
"   ........                                                     ",
"  ........                                                      ",
"  .......                                                       ",
"                                                                ",
"                                                                "
};
