/* XPM */
static char *_6e0b21f137b4685975dafdcfcdfdb80_5[] = {
/* columns rows colors chars-per-pixel */
"16 16 2 1 ",
"  c None",
". c black",
/* pixels */
"                ",
"            ... ",
"          .  .. ",
"         . .. . ",
"        . ...   ",
"        .... .  ",
"        .   .   ",
"      ......    ",
"      ...       ",
"     ....       ",
"      .         ",
"    ..          ",
"   ..           ",
"  ..            ",
" ..             ",
"                "
};
