/* XPM */
static char *_6e0b21f137b4685975dafdcfcdfdb80_3[] = {
/* columns rows colors chars-per-pixel */
"48 48 2 1 ",
"  c None",
". c black",
/* pixels */
"                                                ",
"                                                ",
"                                   .......      ",
"                                   ..........   ",
"                                ..  .........   ",
"                               ...  .........   ",
"                              ....  .........   ",
"                             .....       ....   ",
"                            .....  ..    ....   ",
"                           .....  .....  .....  ",
"                          .....  ......  .....  ",
"                         .....  .......  .....  ",
"                        .....  ........         ",
"                        ....  ........          ",
"                             ........   ....    ",
"                       .    ........   ....     ",
"                      ..... .......   ....      ",
"                      .....  .....   ....       ",
"                      .....  ....   ....        ",
"                       ....        ....         ",
"                       ....       ....          ",
"                   .   .........  ...           ",
"                   ..  .........  ..            ",
"                    ............  .             ",
"                 .   ...........                ",
"                ...   ..       .                ",
"             ..  ...   ..                       ",
"             ...  ...   ..                      ",
"              ...  ...   ..                     ",
"               ...  ...                         ",
"            .   ...  ...                        ",
"           ..    ...  .                         ",
"          ..  ..  ...                           ",
"         ..  ....  ..                           ",
"        ..  ......  .                           ",
"       ..  .......                              ",
"      ..  .......                               ",
"     ..  .......                                ",
"    ..  .......                                 ",
"   ..  .......                                  ",
"  ..  .......                                   ",
"  .  .......                                    ",
"    .......                                     ",
"   .......                                      ",
"  .......                                       ",
"  ......                                        ",
"                                                ",
"                                                "
};
