/* XPM */
static char *_6e0b21f137b4685975dafdcfcdfdb80_1[] = {
/* columns rows colors chars-per-pixel */
"128 128 2 1 ",
"  c None",
". c black",
/* pixels */
"                                                                                                                                ",
"                                                                                                                                ",
"                                                                                                                                ",
"                                                                                                                                ",
"                                                                                                                                ",
"                                                                                               ..                               ",
"                                                                                              ................                  ",
"                                                                                              ..........................        ",
"                                                                                               .........................        ",
"                                                                                        ..     .........................        ",
"                                                                                       ...     .........................        ",
"                                                                                      ....     .........................        ",
"                                                                                     .....     .........................        ",
"                                                                                    ......     ..........................       ",
"                                                                                   .......     ..........................       ",
"                                                                                  ........     ..........................       ",
"                                                                                 ..........    ..........................       ",
"                                                                                ...........    ..........................       ",
"                                                                               ............                 .............       ",
"                                                                              ............                   ............       ",
"                                                                             ............                    ............       ",
"                                                                            ............                     ............       ",
"                                                                           ............       ..             ............       ",
"                                                                          ............       ...........     ............       ",
"                                                                         ............       .............    ............       ",
"                                                                        ............       ..............    .............      ",
"                                                                       ............       ...............    .............      ",
"                                                                      ............       ................    .............      ",
"                                                                     ............       .................    .............      ",
"                                                                    ............       ..................    .............      ",
"                                                                   ............       ...................    .............      ",
"                                                                  ............       ....................     ............      ",
"                                                                 ............       .....................          .......      ",
"                                                                ............       ......................                       ",
"                                                               ............       ......................                        ",
"                                                              ............       ......................                         ",
"                                                               ..........       ......................                          ",
"                                                                               ......................      ............         ",
"                                                                              ......................      ............          ",
"                                                                             ......................      ............           ",
"                                                                            ......................      ............            ",
"                                                           ........         .....................      ............             ",
"                                                           ............     ....................      ............              ",
"                                                           ............     ...................      ............               ",
"                                                           ............     ..................      ............                ",
"                                                            ...........     .................      ............                 ",
"                                                            ...........     ................      ............                  ",
"                                                            ...........     ...............      ............                   ",
"                                                            ...........     ..............      ............                    ",
"                                                            ............    .............      ............                     ",
"                                                            ............    ............      ............                      ",
"                                                            ............             ..      ............                       ",
"                                                            ............                    ............                        ",
"                                                            ............                   ............                         ",
"                                                  .         ............                  ............                          ",
"                                                  ..        ............                  ...........                           ",
"                                                  ...       .........................     ..........                            ",
"                                                 .....      ..........................    .........                             ",
"                                                 ......      .........................    ........                              ",
"                                                  ......     .........................    .......                               ",
"                                                   ......    .........................     .....                                ",
"                                                    ......   .........................     ....                                 ",
"                                                     ......  .........................     ...                                  ",
"                                                      ................................     ..                                   ",
"                                              ..       ...............................     .                                    ",
"                                             ....       ..............................                                          ",
"                                            ......       ....... .....................                                          ",
"                                           ........       ......             .........                                          ",
"                                           .........       ......                                                               ",
"                                            .........       ......                                                              ",
"                                   ....      .........       ......                                                             ",
"                                 .......      .........       ......                                                            ",
"                                  .......      .........       ......                                                           ",
"                                   .......      .........       ......                                                          ",
"                                    .......      .........       ......                                                         ",
"                                     .......      .........       ......                                                        ",
"                                      .......      .........       ......                                                       ",
"                                       .......      .........       ...                                                         ",
"                                        .......      .........                                                                  ",
"                                 ..      .......      .........                                                                 ",
"                                ....      .......      .........                                                                ",
"                               .....       .......      .......                                                                 ",
"                              ......        .......      .....                                                                  ",
"                             ......          .......      ...                                                                   ",
"                            ......            .......      .                                                                    ",
"                           ......      ..      .......                                                                          ",
"                          ......      ....      .......                                                                         ",
"                         ......      ......      .......                                                                        ",
"                        ......      ........      .......                                                                       ",
"                       ......      ..........      ......                                                                       ",
"                      ......      ............      .....                                                                       ",
"                     ......      ..............      ....                                                                       ",
"                    ......      ................      ...                                                                       ",
"                   ......      .................       ..                                                                       ",
"                  ......      .................                                                                                 ",
"                 ......      .................                                                                                  ",
"                ......      .................                                                                                   ",
"               ......      .................                                                                                    ",
"              ......      .................                                                                                     ",
"             ......      .................                                                                                      ",
"            ......      .................                                                                                       ",
"           ......      .................                                                                                        ",
"          ......      .................                                                                                         ",
"         ......      .................                                                                                          ",
"        ......      .................                                                                                           ",
"       ......      .................                                                                                            ",
"      ......      .................                                                                                             ",
"     ......      .................                                                                                              ",
"    ......      .................                                                                                               ",
"    .....      .................                                                                                                ",
"    ....      .................                                                                                                 ",
"    ...      .................                                                                                                  ",
"    ..      .................                                                                                                   ",
"           .................                                                                                                    ",
"          .................                                                                                                     ",
"         .................                                                                                                      ",
"        .................                                                                                                       ",
"       .................                                                                                                        ",
"      .................                                                                                                         ",
"     .................                                                                                                          ",
"    .................                                                                                                           ",
"    ................                                                                                                            ",
"    ...............                                                                                                             ",
"    ..............                                                                                                              ",
"                                                                                                                                ",
"                                                                                                                                ",
"                                                                                                                                ",
"                                                                                                                                "
};
