/* XPM */
static char *_c9d007b348c4bb6aa1220ea53083947_1[] = {
/* columns rows colors chars-per-pixel */
"32 32 48 1 ",
"  c None",
". c #00BBD2",
"X c #00BAD3",
"o c #00BBD3",
"O c #00BCD3",
"+ c #00BBD4",
"@ c #06BCD4",
"# c #0BBDD5",
"$ c #11BFD4",
"% c #11BED5",
"& c #11BFD5",
"* c #14C0D6",
"= c #17C1D6",
"- c #17C1D7",
"; c #4DCFDE",
": c #4CCFDF",
"> c #4CCEE0",
", c #4DCEE0",
"< c #4CCFE0",
"1 c #4DCFE0",
"2 c #4CCFE1",
"3 c #4DCFE1",
"4 c #54CAE0",
"5 c #55CAE1",
"6 c #5ACCE0",
"7 c #4CD0E0",
"8 c #4DD0E0",
"9 c #4DD0E1",
"0 c #60CCE2",
"q c #61CCE2",
"w c #6CCEE4",
"e c #97D7EA",
"r c #ADDBEE",
"t c #B6DBEF",
"y c #B6DDEE",
"u c #B6DDEF",
"i c #BEDDF0",
"p c #C6DEF2",
"a c #D3E1F2",
"s c #D3E0F3",
"d c #D4E2F3",
"f c #D3E1F4",
"g c #D3E1F5",
"h c #D4E0F4",
"j c #D4E1F4",
"k c #D5E1F4",
"l c #D4E1F5",
"z c #D4E2F4",
/* pixels */
"                                ",
"                                ",
"  ooooooo             jfd       ",
" oooooooooo         jjjjf       ",
" ooooooooooo      jjjjjjjs      ",
" ooooooooooo+   jjjjjjjjjs      ",
" ooooooooooo@5tjjjjjjjjjjj0oooO ",
" ooooooooo#0ijjjjjjjjjjjjji@ooo ",
" ooooooo%wpjjjjjjjjjjjjjjjj5ooo ",
" *%%%%*6ruuuuuuuuuuuuuuuuuue%%* ",
";1111111111111111111111111111118",
"11111111111111111111111111111111",
"11111111111111111111111111111118",
"81111111111111111111111111111111",
"81111111111111111111111111111111",
"11111111111111111111111111111111",
"81111111111111111111111111111111",
"1111111111111111111111111111111;",
"81111111111111111111111111111111",
"81111111111111111111111111111111",
" 111111111111111111111111111111 ",
" 111111111111111111111111111111 ",
" 111111111111111111111111111111 ",
" 111111111111111111111111111111 ",
" 111111111111111111111111111111 ",
" 111111111111111111111111111111 ",
" 111111111111111111111111111111 ",
" 111111111111111111111111111111 ",
" 111111111111111111111111111111 ",
" 11111111111111111111111111111; ",
"                                ",
"                                "
};
