/* XPM */
static char *_c9d007b348c4bb6aa1220ea53083947_2[] = {
/* columns rows colors chars-per-pixel */
"48 48 77 1 ",
"  c None",
". c #00BBD2",
"X c #00BAD3",
"o c #00BBD3",
"O c #01BBD3",
"+ c #02BBD3",
"@ c #03BBD3",
"# c #03BCD3",
"$ c #00BBD4",
"% c #00BCD4",
"& c #04BCD4",
"* c #06BCD4",
"= c #0CBDD4",
"- c #0EBDD5",
"; c #13BED6",
": c #18BFD7",
"> c #1CC2D6",
", c #1CC2D7",
"< c #1EC2D7",
"1 c #1EC2D8",
"2 c #21C1D8",
"3 c #29C2D9",
"4 c #2CC3D9",
"5 c #38C5DB",
"6 c #48C7DE",
"7 c #47CADE",
"8 c #4AC8DE",
"9 c #4DC9DF",
"0 c #4DCEDF",
"q c #4CCFDF",
"w c #4DCFDF",
"e c #4DD0DF",
"r c #4CCEE0",
"t c #4DCEE0",
"y c #4CCFE0",
"u c #4DCFE0",
"i c #4CCFE1",
"p c #4DCFE1",
"a c #4ECFE0",
"s c #54C9E1",
"d c #55CAE0",
"f c #4CD0E0",
"g c #4DD0E0",
"h c #4CD0E1",
"j c #4DD0E1",
"k c #4ED0E1",
"l c #61CCE2",
"z c #6BCEE3",
"x c #83D2E7",
"c c #86D5E8",
"v c #87D5E8",
"b c #8AD3E9",
"n c #8DD4E9",
"m c #9DD9EC",
"M c #A2DAEC",
"N c #A2DAED",
"B c #A4D8EC",
"V c #AADAEE",
"C c #ACD9EE",
"Z c #ACDAEE",
"A c #BDDDF0",
"S c #C8DFF2",
"D c #CBDFF2",
"F c #CEE0F3",
"G c #D0E0F2",
"H c #D1E0F3",
"J c #D3E1F3",
"K c #D5E0F2",
"L c #D4E1F3",
"P c #D3E0F4",
"I c #D3E1F4",
"U c #D3E2F4",
"Y c #D4E0F4",
"T c #D4E1F4",
"R c #D4E1F5",
"E c #D5E1F5",
"W c #D5E2F5",
/* pixels */
"                                                ",
"                                                ",
"                                                ",
"   XXXXXXXXXXX                    TGT           ",
"  $XXXXXXXXXXXX                 PPTTT           ",
"  XXXXXXXoXXXXXX             KTTTTTTTT          ",
"  XXXXXXXXXXXXXXX           TTTTTTTTTK          ",
"  XXXXXXXXXXXXXXXXX      TKTTTTTTTTTTTT         ",
"  XXXXXXXXXXXXXXXXXXX*sDPPTTTTTTTTTTTTP5%%%%X   ",
"  XXXXXXXXXXXXXXXXX=4bFTTTTTTTTTTTTTTTTxXXXXX$  ",
"  XXXXXXXXXXXXXXX=8nDTTTTTTTTTTTTTTTTTTA3XXXXX  ",
"  XXXXXXXooXXXX*9VDTTTTTTTTTTTTTTTTTTTTGzoXXX$  ",
"  XXXXXXXXXXX;6CTTTTTTTTTTTTTTTTTTTTTTTTC:XXX$  ",
"  XXXXXXXXX2lBGTTTTTTTTTTTTTTTTTTTTTTTTTGsXXX$  ",
"  <<<<<<<<7cmMMMMMMMMMMMMMMMMMMMMMMMMMMMMc<<<1  ",
"yyyyyyyyyyyyyyyyyyyyyyyyyyyyyyyyyyyyyyyyyyyyyyyy",
"yyyyyyyyyyyyyyyyyyyyyyyyyyyyyyyyyyyyyyyyyyyyyyyy",
"gyyyyyyyyyyyyyyyyyyyyyyyyyyyyyyyyyyyyyyyyyyyyyyy",
"gyyyyyyyyyyyyyyyyyyyyyyyyyyyyyyyyyyyyyyyyyyyyyyy",
"yyyyyyyyyyyyyyyyyyyyyyyyyyyyyyyyyyyyyyyyyyyyyyyy",
"gyyyyyyyyyyyyyyyyyyyyyyyyyyyyyyyyyyyyyyyyyyyyyyg",
"yyyyyyyyyyyyyyyyyyyyyyyyyyyyyyyyyyyyyyyyyyyyyyyg",
"yyyyyyyyyyyyyyyyyyyyyyyyyyyyyyyyyyyyyyyyyyyyyyyg",
"yyyyyyyyyyyyyyyyyyyyyyyyyyyyyyyyyyyyyyyyyyyyyyyg",
" yyyyyyyyyyyyyyyyyyyyyyyyyyyyyyyyyyyyyyyyyyyyyy ",
" yyyyyyyyyyyyyyyyyyyyyyyyyyyyyyyyyyyyyyyyyyyyyy ",
" yyyyyyyyyyyyyyyyyyyyyyyyyyyyyyyyyyyyyyyyyyyyyy ",
" yyyyyyyyyyyyyyyyyyyyyyyyyyyyyyyyyyyyyyyyyyyyyy ",
" yyyyyyyyyyyyyyyyyyyyyyyyyyyyyyyyyyyyyyyyyyyyyy ",
" wyyyyyyyyyyyyyyyyyyyyyyyyyyyyyyyyyyyyyyyyyyyyy ",
" yyyyyyyyyyyyyyyyyyyyyyyyyyyyyyyyyyyyyyyyyyyyyw ",
" gyyyyyyyyyyyyyyyyyyyyyyyyyyyyyyyyyyyyyyyyyyyyy ",
" yyyyyyyyyyyyyyyyyyyyyyyyyyyyyyyyyyyyyyyyyyyyyy ",
" yyyyyyyyyyyyyyyyyyyyyyyyyyyyyyyyyyyyyyyyyyyyyy ",
" yyyyyyyyyyyyyyyyyyyyyyyyyyyyyyyyyyyyyyyyyyyyyy ",
" yyyyyyyyyyyyyyyyyyyyyyyyyyyyyyyyyyyyyyyyyyyyyw ",
" wyyyyyyyyyyyyyyyyyyyyyyyyyyyyyyyyyyyyyyyyyyyyy ",
" yyyyyyyyyyyyyyyyyyyyyyyyyyyyyyyyyyyyyyyyyyyyyy ",
" gyyyyyyyyyyyyyyyyyyyyyyyyyyyyyyyyyyyyyyyyyyyyw ",
" yyyyyyyyyyyyyyyyyyyyyyyyyyyyyyyyyyyyyyyyyyyyyy ",
" yyyyyyyyyyyyyyyyyyyyyyyyyyyyyyyyyyyyyyyyyyyyyy ",
" yyyyyyyyyyyyyyyyyyyyyyyyyyyyyyyyyyyyyyyyyyyyyy ",
" wyyyyyyyyyyyyyyyyyyyyyyyyyyyyyyyyyyyyyyyyyyyye ",
"  yyyyyyyyyyyyyyyyyyyyyyyyyyyyyyyyyyyyyyyyyyyg  ",
"  wyyyyyyyyyyyyyyyyyyyyyyyyyyyyyyyyyyyyyyyyyyw  ",
"                                                ",
"                                                ",
"                                                "
};
