/* XPM */
static char *_4231180e2374412a291d0c7d53a5aba_2[] = {
/* columns rows colors chars-per-pixel */
"48 48 2 1 ",
"  c None",
". c black",
/* pixels */
"                                .               ",
"                              ...               ",
"                           ......               ",
"                         ........               ",
"                       ..........               ",
"                    .............               ",
"                  ...............               ",
"                .................               ",
"             ....................               ",
"           ..........  ..........               ",
"           .......    ...............           ",
"           .....    ..................          ",
"           ...   ....  ..........   ..          ",
"           ... ...    ...........   ..          ",
"           .....    .............   ..          ",
"           ...   ................   ..          ",
"           ... ..................   ..          ",
"           ......................   ..          ",
"           ......................   ..          ",
"           ......................   ..          ",
"           ......................   ..          ",
"           ......................   ..          ",
"           ......................   ..          ",
"           ......................   ..          ",
"           ......................   ..          ",
"           .................... .   ..          ",
"           .................    .   ..          ",
"           ...............    ...   ..          ",
"           .............   ....     ..          ",
"           ...........   ....       ..          ",
"           ........    ...          ..          ",
"           ......    ...            ..          ",
"           ....   ....              ..          ",
"           ...  ....                ..          ",
"           ..  .......................          ",
"           ..  .......................          ",
"           .. ..                    ..          ",
"           .. ........................          ",
"           .. ........      ..........          ",
"           ..  ..            ...... ..          ",
"            ..  ......................          ",
"            ...              ...... ..          ",
"             ....            ...... ..          ",
"               ......................           ",
"                             ......             ",
"                             .. ..              ",
"                             ..  .              ",
"                                                "
};
