/* XPM */
static char *_4231180e2374412a291d0c7d53a5aba_1[] = {
/* columns rows colors chars-per-pixel */
"32 32 2 1 ",
"  c None",
". c black",
/* pixels */
"                     .          ",
"                   ...          ",
"                ......          ",
"              ........          ",
"            ..........          ",
"         .............          ",
"       ......  .......          ",
"       ....  ............       ",
"       ... ... .......  .       ",
"       ....  .........  .       ",
"       ..  ...........  .       ",
"       ...............  .       ",
"       ...............  .       ",
"       ...............  .       ",
"       ...............  .       ",
"       ...............  .       ",
"       ...............  .       ",
"       ............  .  .       ",
"       ..........  ..   .       ",
"       ........  ..     .       ",
"       ......  ..       .       ",
"       ...   ..         .       ",
"       ..  ..           .       ",
"       .. ...............       ",
"       ....             .       ",
"       .. ...............       ",
"        . ..       ......       ",
"        ..   ............       ",
"         ......    ......       ",
"                   .....        ",
"                    . .         ",
"                                "
};
