/* XPM */
static char *_e9454e6b8794cc2bfbdba99730feed2_1[] = {
/* columns rows colors chars-per-pixel */
"32 32 13 1 ",
"  c None",
". c black",
"X c #010101",
"o c #020202",
"O c gray1",
"+ c #040404",
"@ c gray2",
"# c #060606",
"$ c #070707",
"% c gray3",
"& c #090909",
"* c gray4",
"= c #0B0B0B",
/* pixels */
"          *+OOO*                ",
"         +OOOOOOO               ",
"        +OOOOOOOOO              ",
"       +OOOOOOOOOOO             ",
"       OOOOOOOOOOOO             ",
"      +OOOOOOOOOOOO+            ",
"      +OOOOOOOOOOOOO            ",
"      OOOOOOOOOOOOOO            ",
"      +OOOOOOOOOOOOO            ",
"      *OOOOOOOOOOOO+            ",
"       OOOOOOOOOOOO             ",
"       +OOOOOOOOOO+             ",
"        +OOOOOOOOO              ",
"         +OOOOOO+               ",
"           +OO+                 ",
"                                ",
"       +OOO++++OOO+             ",
"     +OOOOOOOOOOOOOO+           ",
"   +OOOOOOOOOOOOOOOOOO+         ",
" *OOOOOOOOOOOOOOOOOOOOO         ",
"*OOOOOOOOOOOOOOOOOOOOO*         ",
"OOOOOOOOOOOOOOOOOOOOOO  *OO*    ",
"OOOOOOOOOOOOOOOOOOOOOO  +OO+    ",
"+OOOOOOOOOOOOOOOOOO     OOO+    ",
" +OOOOOOOOOOOOOOOO      OOOO    ",
"                    +OOOOOOOOOO*",
"                    OOOOOOOOOOO+",
"                    *OOOOOOOOOO*",
"                        OOOO    ",
"                        OOOO    ",
"                        +OO+    ",
"                         OO     "
};
