/* XPM */
static char *_e9454e6b8794cc2bfbdba99730feed2_2[] = {
/* columns rows colors chars-per-pixel */
"48 48 18 1 ",
"  c None",
". c black",
"X c #010101",
"o c #020202",
"O c gray1",
"+ c #040404",
"@ c gray2",
"# c #060606",
"$ c #070707",
"% c gray3",
"& c #090909",
"* c gray4",
"= c #0B0B0B",
"- c #0C0C0C",
"; c gray5",
": c #0E0E0E",
"> c gray6",
", c #131313",
/* pixels */
"                :@@X@@&                         ",
"              :@XXXXXXXX&                       ",
"             &XXXXXXXXXXX@                      ",
"            &XXXXXXXXXXXXX@                     ",
"           &XXXXXXXXXXXXXXX@                    ",
"           XXXXXXXXXXXXXXXXX:                   ",
"          @XXXXXXXXXXXXXXXXX@                   ",
"          XXXXXXXXXXXXXXXXXXX:                  ",
"         :XXXXXXXXXXXXXXXXXXX&                  ",
"         &XXXXXXXXXXXXXXXXXXX@                  ",
"         @XXXXXXXXXXXXXXXXXXX@                  ",
"         @XXXXXXXXXXXXXXXXXXX@                  ",
"         &XXXXXXXXXXXXXXXXXXX@                  ",
"         :XXXXXXXXXXXXXXXXXXX@                  ",
"          XXXXXXXXXXXXXXXXXXX:                  ",
"          @XXXXXXXXXXXXXXXXXX                   ",
"          :XXXXXXXXXXXXXXXXX&                   ",
"           @XXXXXXXXXXXXXXXX                    ",
"            @XXXXXXXXXXXXXX:                    ",
"             @XXXXXXXXXXXX&                     ",
"              @XXXXXXXXX@:                      ",
"               :@XXXXX@:                        ",
"                                                ",
"             &:          &:                     ",
"           &XXX@&&   &&@XXX@                    ",
"         &XXXXXXXXXXXXXXXXXXX@                  ",
"       &XXXXXXXXXXXXXXXXXXXXXXX@                ",
"     &XXXXXXXXXXXXXXXXXXXXXXXXXXX&              ",
"   &XXXXXXXXXXXXXXXXXXXXXXXXXXXXXXX,            ",
"  @XXXXXXXXXXXXXXXXXXXXXXXXXXXXXXX&             ",
" @XXXXXXXXXXXXXXXXXXXXXXXXXXXXXXX@              ",
"&XXXXXXXXXXXXXXXXXXXXXXXXXXXXXXXX&   :@@:       ",
"@XXXXXXXXXXXXXXXXXXXXXXXXXXXXXXXX:  :XXXX       ",
"@XXXXXXXXXXXXXXXXXXXXXXXXXXXXXXXX   @XXXX&      ",
"&XXXXXXXXXXXXXXXXXXXXXXXXXXXX&      @XXXX@      ",
" XXXXXXXXXXXXXXXXXXXXXXXXXXX        @XXXX&      ",
" :XXXXXXXXXXXXXXXXXXXXXXXXX:        XXXXX@      ",
"   @X@XXXXXXXXXXXXXXXX@XXX&    &XXXXXXXXXXXXXX& ",
"                              &XXXXXXXXXXXXXXXX&",
"                              @XXXXXXXXXXXXXXXX@",
"                              &XXXXXXXXXXXXXXXX&",
"                               &X@@@XXXXXX@@@X& ",
"                                    @XXXX@      ",
"                                    XXXXX&      ",
"                                    @XXXX@      ",
"                                    @XXXX&      ",
"                                    :XXXX       ",
"                                     &X@:       "
};
