/* XPM */
static char *d1d9c220544f4647a95ef9fbfcbd8c71_1[] = {
/* columns rows colors chars-per-pixel */
"32 32 128 2 ",
"   c None",
".  c #010101",
"X  c #090804",
"o  c #060609",
"O  c #0E0709",
"+  c #06090A",
"@  c #0C0C0E",
"#  c #16110A",
"$  c #0C0D11",
"%  c #0C1314",
"&  c #0B191D",
"*  c #111214",
"=  c #13141B",
"-  c #131C1C",
";  c #18181B",
":  c #231D0C",
">  c #360913",
",  c #27210D",
"<  c #0C1E26",
"1  c #1B1B22",
"2  c #1E1E29",
"3  c #13292A",
"4  c #1F2A2B",
"5  c #232226",
"6  c #24242B",
"7  c #212D2E",
"8  c #2B2A2F",
"9  c #242632",
"0  c #272935",
"q  c #2A2A34",
"w  c #2B2D3C",
"e  c #36353A",
"r  c #4A0D1A",
"t  c #2F3141",
"y  c #323445",
"u  c #3C3B42",
"i  c #353748",
"p  c #37394B",
"a  c #393B4E",
"s  c #3C3E53",
"d  c #19495B",
"f  c #214749",
"g  c #224B4C",
"h  c #384E4F",
"j  c #354B4D",
"k  c #3F4257",
"l  c #2A5A5C",
"z  c #2F6769",
"x  c #387B7E",
"c  c #45454C",
"v  c #4E4D56",
"b  c #43455C",
"n  c #435D5E",
"m  c #474961",
"M  c #4A4C65",
"N  c #4F526D",
"B  c #575660",
"V  c #4D6C6D",
"C  c #63616C",
"Z  c #6E6D79",
"A  c #72707C",
"S  c #9F1A38",
"D  c #946E31",
"F  c #9E7634",
"G  c #A77C37",
"H  c #B31E40",
"J  c #D4244C",
"K  c #E22751",
"L  c #EF2856",
"P  c #FF2C5C",
"I  c #D2A247",
"U  c #E2AD4B",
"Y  c #E2BE4F",
"T  c #FFC355",
"R  c #F0CA54",
"E  c #FFD659",
"W  c #226884",
"Q  c #267594",
"!  c #327F9D",
"~  c #757380",
"^  c #797784",
"/  c #7C7A88",
"(  c #45898D",
")  c #5C8082",
"_  c #658D8F",
"`  c #70B3B6",
"'  c #38A3CD",
"]  c #46AFD9",
"[  c #40B7E7",
"{  c #58C0C5",
"}  c #5ECDD2",
"|  c #5FD0D5",
" . c #63CBD0",
".. c #4FC6F5",
"X. c #6AE4EA",
"o. c #76E8ED",
"O. c #6FF1F7",
"+. c #73F5FB",
"@. c #7AF6FC",
"#. c #878595",
"$. c #9492A2",
"%. c #82B5B6",
"&. c #A4A2B4",
"*. c #B0ADC1",
"=. c #BAB7CC",
"-. c #BCB9CE",
";. c #BFBCD1",
":. c #8FC7C9",
">. c #96D1D3",
",. c #99D5D7",
"<. c #9AD7D9",
"1. c #92E2E7",
"2. c #8DF8FD",
"3. c #96F9FC",
"4. c #9CF9FE",
"5. c #A5E6E9",
"6. c #A9EBEE",
"7. c #AAEDF0",
"8. c #A6FAFE",
"9. c #ACFBFF",
"0. c #B1F7FA",
"q. c #B5FCFF",
"w. c #C3C1D6",
"e. c #C5C3D8",
"r. c #CAC7DD",
"t. c #CCC9E0",
"y. c #D7D4EC",
"u. c #D8D5ED",
/* pixels */
"                              . . . o . . .                     ",
"                          . $ w b M m M b w $ .                 ",
"                        o y b 6 + - 7 - + 6 b y o               ",
". . . . . . . . . . . + b 0 - _ 5.q.q.q.1.( & 0 b =             ",
"+ #.#.#.#.#.#.#.#.Z o b 2 h 7.q.q.q.q.q.q.9.o.g 2 N w           ",
"@ u.u.t.t.t.t.t.t.c t w j 0.q.q.q.q.q.q.q.q.9.+.f w t .         ",
"~ u.;.; ; ; ; ; * + m = 6.q.q.q.q.q.q.q.q.q.q.4.X.% m +         ",
"A u.u.u.u.u.u.u.Z 0 0 ) q.q.q.q.q.q.q.q.q.q.q.q.@.x 0 0         ",
"@ u.;.* @ @ @ @ o s % ,.q.q.q.q.q.q.q.q.q.q.q.q.2.} * s .       ",
"@ u.u.u.u.u.u.u.1 M + q.q.q.q.q.q.q.q.q.q.q.q.q.4.+.+ M .       ",
"@ u.;.; ; ; ; ; . M % q.q.q.q.q.q.q.q.q.q.q.q.q.4.+.% M .       ",
"@ u.u.t.t.t.t.t.5 m + 0.q.q.q.q.q.q.q.q.q.q.q.q.4.O.+ m .       ",
"@ u.;.q 8 8 q ;.c a = :.q.q.q.q.q.q.q.q.q.q.q.q.2.{ = a .       ",
"@ u.y.-.=.=.-.y./ 9 w V q.q.q.q.q.q.q.q.q.q.q.q.+.z w 6         ",
"@ u.u.u.u.u.u.u.e.@ m $ <.q.q.q.q.q.q.q.q.q.q.3.| $ m o         ",
"@ u.u.u.u.u.u.r.+ X 9 i 7 6.q.q.q.q.q.q.q.q.8.X.3 p 9 .         ",
"@ u.u.u.u.u.u.w., R : a w 4 >.q.q.q.q.q.q.8. .3 w a .           ",
"@ u.u.u.u.u.u.w., E I # a p $ n %.5.0.5.` l $ p a + = .         ",
"@ u.*.&.&.&.-.w., E T F . 6 m y 1 + o + 1 y m 6 . @ k = .       ",
"@ u.+ r r > u w., E T G v C o 2 y b b b y 2 o .     $ k = .     ",
"@ u.O P L H u w., E T G B w.& ! d < * 5 .             $ k = .   ",
"@ u.O P L H u w., E T G B w.< ..[ Q B $..               $ k = . ",
"@ u.O P L H u w., E T G B w.< ..[ Q B $..                 $ s . ",
"@ u.O P L H u w., E T G B w.< ..[ Q B $..                   . . ",
"@ u.O P L H u w., E T G B w.< ..[ Q B $..                       ",
"@ u.O P L H u w., E T G B w.< ..[ Q B $..                       ",
"@ u.O P L H u w., E T G B w.< ..[ Q B $..                       ",
"@ u.O P L H u w., E T G B w.< ..[ Q B $..                       ",
"@ u.O K J S u w.: Y U D B w.< ] ' W B e.                        ",
"@ u.e 6 6 6 C t.8 6 6 6 ^ t.8 6 6 6 ^ w.                        ",
"@ u.u.u.u.u.u.u.u.u.u.u.u.u.u.u.u.u.u.$..                       ",
". @ @ @ @ @ @ @ @ @ @ @ @ @ @ @ @ @ @ + .                       "
};
