/* XPM */
static char *d1d9c220544f4647a95ef9fbfcbd8c71_2[] = {
/* columns rows colors chars-per-pixel */
"48 48 167 2 ",
"   c None",
".  c #020203",
"X  c #0D0B05",
"o  c #050708",
"O  c #050A0C",
"+  c #0B0B0C",
"@  c #161209",
"#  c #0D0D12",
"$  c #0A1314",
"%  c #0D1B1C",
"&  c #061318",
"*  c #131316",
"=  c #14151B",
"-  c #15181D",
";  c #1B1A1D",
":  c #2A1F0E",
">  c #370914",
",  c #0B1D23",
"<  c #1C1D21",
"1  c #1D1E29",
"2  c #171820",
"3  c #1F212B",
"4  c #1B2526",
"5  c #14323E",
"6  c #21232E",
"7  c #29292D",
"8  c #202025",
"9  c #252632",
"0  c #272835",
"q  c #2B2C34",
"w  c #2B2D3B",
"e  c #273737",
"r  c #38373E",
"t  c #460C19",
"y  c #413616",
"u  c #590F20",
"i  c #5F1022",
"p  c #631123",
"a  c #79152C",
"s  c #58421D",
"d  c #654C21",
"f  c #6D5124",
"g  c #635322",
"h  c #193D47",
"j  c #2E3040",
"k  c #323344",
"l  c #3E3E44",
"z  c #353749",
"x  c #36394B",
"c  c #383B4E",
"v  c #3B3E51",
"b  c #403F47",
"n  c #1D4142",
"m  c #1B4A5C",
"M  c #164558",
"N  c #244A4C",
"B  c #3E4156",
"V  c #3D5455",
"C  c #315556",
"Z  c #194C60",
"A  c #326E70",
"S  c #326C6F",
"D  c #48464E",
"F  c #43424A",
"G  c #4E4C56",
"H  c #43455C",
"J  c #45485F",
"K  c #504F58",
"L  c #425D5E",
"P  c #53525B",
"I  c #464961",
"U  c #494C65",
"Y  c #4C4F68",
"T  c #4D506A",
"R  c #56576A",
"E  c #605F69",
"W  c #447073",
"Q  c #537374",
"!  c #57797B",
"~  c #63626D",
"^  c #686571",
"/  c #6A6975",
"(  c #72717D",
")  c #871730",
"_  c #8C1732",
"`  c #921834",
"'  c #82162F",
"]  c #8D692E",
"[  c #DD2551",
"{  c #E62753",
"}  c #EC2855",
"|  c #F52958",
" . c #FF2C5C",
".. c #A48638",
"X. c #A78C3A",
"o. c #D6B44A",
"O. c #FFBD54",
"+. c #F5BB52",
"@. c #FFC756",
"#. c #F5CE56",
"$. c #FFD659",
"%. c #327D9A",
"&. c #797785",
"*. c #777582",
"=. c #817F8C",
"-. c #3B8082",
";. c #3381A0",
":. c #3091B8",
">. c #559294",
",. c #638A8C",
"<. c #689395",
"1. c #729FA1",
"2. c #4AA1A5",
"3. c #50AEB2",
"4. c #51B2B6",
"5. c #77A5A7",
"6. c #3CADDA",
"7. c #3BB3E3",
"8. c #58BDC1",
"9. c #43BAEA",
"0. c #47B9E8",
"q. c #5ECDD3",
"w. c #5CC7CB",
"e. c #66C3C6",
"r. c #4FC6F5",
"t. c #66DEE3",
"y. c #6FF1F7",
"u. c #7CF1F7",
"i. c #73F6FC",
"p. c #7BF7FC",
"a. c #6EEBF1",
"s. c #83818F",
"d. c #848391",
"f. c #8D8B9B",
"g. c #9997A8",
"h. c #A19FB1",
"j. c #83B7B9",
"k. c #A4A2B4",
"l. c #A8A6B9",
"z. c #B6B4C7",
"x. c #B7B5C8",
"c. c #BBB8CD",
"v. c #BFBCD1",
"b. c #90CFD2",
"n. c #9AD7D9",
"m. c #91C9CC",
"M. c #A0DFE2",
"N. c #84F7FD",
"B. c #8EF8FD",
"V. c #9DF8FC",
"C. c #8DE5E9",
"Z. c #A2E2E5",
"A. c #A7E9EB",
"S. c #ABEEF1",
"D. c #AEF3F6",
"F. c #A3FAFE",
"G. c #ACFBFF",
"H. c #ACF7FA",
"J. c #B5FCFF",
"K. c #C3C1D6",
"L. c #C7C4D9",
"P. c #CAC7DE",
"I. c #CECBE2",
"U. c #D1CEE5",
"Y. c #D3D0E7",
"T. c #D4D1E9",
"R. c #D8D5ED",
/* pixels */
"                                                . . . . . . .                                   ",
"                                          . . + < 6 0 w w 0 1 * . .                             ",
"                                      . . # k J U Y I H H U Y U B 6 . .                         ",
"                                    . + w T J k = o o + + o + 6 B U H = . .                     ",
"                                  . = B H 9 # 4 L ,.5.5.5.<.W h O 2 z U w o .                   ",
". . . . . . . . . . . . . . . . . < U c # $ ,.n.D.J.J.J.J.J.H.C.8.n . 6 T x 1                   ",
". q P P P P P P P P P P P P F . = U v # e n.J.J.J.J.J.J.J.J.J.J.F.a.-.$ < U T U                 ",
". &.R.R.R.R.R.R.R.R.R.R.R.U.P o v v # V Z.J.J.J.J.J.J.J.J.J.J.J.J.F.u.2.$ 6 Y c .               ",
". &.R.R.U.L.K.K.K.K.K.K.L.g.* 0 J # e M.J.J.J.J.J.J.J.J.J.J.J.J.J.J.V.i.2.O z I * .             ",
"8 k.R.I.P o o o o o o o o . + Y 0 + m.J.J.J.J.J.J.J.J.J.J.J.J.J.J.J.J.N.a.S + U w .             ",
"  R.R.T.l.d.d.d.d.d.d.d.( + w I # Q J.J.J.J.J.J.J.J.J.J.J.J.J.J.J.J.J.G.i.8.$ 0 H + .           ",
"< h.R.R.R.R.R.R.R.R.R.R.k.o H x - n.J.J.J.J.J.J.J.J.J.J.J.J.J.J.J.J.J.J.N.y.N # U = .           ",
". &.R.I.R + + + + + + + o * U 1 V A.J.J.J.J.J.J.J.J.J.J.J.J.J.J.J.J.J.J.V.i.2.o v w .           ",
". &.R.T.g.( ( ( ( ( ( ( < 1 Y # Q J.J.J.J.J.J.J.J.J.J.J.J.J.J.J.J.J.J.J.G.i.t.. k v .           ",
". &.R.R.R.R.R.R.R.R.R.R.q 6 T . ,.J.J.J.J.J.J.J.J.J.J.J.J.J.J.J.J.J.J.J.G.p.i.$ 0 J .           ",
". &.R.U.( 7 7 7 7 7 7 7 o 9 Y . <.J.J.J.J.J.J.J.J.J.J.J.J.J.J.J.J.J.J.J.G.p.i., 0 U .           ",
". &.R.U.f.~ E E E E E E = 9 T . ,.J.J.J.J.J.J.J.J.J.J.J.J.J.J.J.J.J.J.J.G.p.i.$ 0 I .           ",
". &.R.R.R.T.T.T.T.T.T.T.b 1 Y + ! J.J.J.J.J.J.J.J.J.J.J.J.J.J.J.J.J.J.J.G.i.a.. j B .           ",
". &.R.Y.s.D D D D D s.Y.^ = U < V S.J.J.J.J.J.J.J.J.J.J.J.J.J.J.J.J.J.J.F.i.4.. c j .           ",
". &.R.U.=.G G G G G =.U.g.+ J k 4 n.J.J.J.J.J.J.J.J.J.J.J.J.J.J.J.J.J.J.B.i.C + I < .           ",
". &.R.R.Y.I.I.I.I.I.Y.R.c.< k J # <.J.J.J.J.J.J.J.J.J.J.J.J.J.J.J.J.J.G.i.q.% 3 J + .           ",
". &.R.R.R.R.R.R.R.R.R.R.I.K * Y 9 * Z.J.J.J.J.J.J.J.J.J.J.J.J.J.J.J.J.B.y.A o J k .             ",
". &.R.R.R.R.R.R.R.R.R.U.*.l . k H + V A.J.J.J.J.J.J.J.J.J.J.J.J.J.J.F.i.4.% 0 U = .             ",
". &.R.R.R.R.R.R.R.R.R.c.. X X # H z . Q D.J.J.J.J.J.J.J.J.J.J.J.J.G.N.w.% < U w .               ",
". &.R.R.R.R.R.R.R.R.R.z.X X.o.@ 3 U w o Q A.J.J.J.J.J.J.J.J.J.J.G.u.3.% * H v . .               ",
". &.R.R.R.R.R.R.R.R.R.z.X X.$...@ 9 U j o e 1.A.J.J.J.J.J.J.J.V.e.A % < H v + . .               ",
". &.R.R.R.R.R.R.R.R.R.z.X X.$.@.] X 1 U H 2 + 4 Q j.Z.D.S.b.>.N % o w U v + * w . .             ",
". &.R.I.L.L.L.L.L.P.R.z.X X.$.@.O.s . = B Y c = + o . . . . o # 0 U U 0 . . 3 H 0 . .           ",
". &.R.P r r r r r G v.z.X X.$.@.O.f + q + 6 x U J c k j j z B U H w * . .   . 1 B 0 . .         ",
". &.R.+ t a a a t * l.z.X X.$.@.O.f ; z.*.. . # 1 w c v v k 0 * o . .         . 1 H j . .       ",
". &.R.+ )  .| { ` * l.z.X X.$.@.O.f < K.z.o m h , & o . # o . . .               . 3 H 0 . .     ",
". &.R.+ )  .| { ` * l.z.X X.$.@.O.f < K.z.O ;.r.6.:.h * f.G .                     . 1 B 0 . .   ",
". &.R.+ )  .| { ` * l.z.X X.$.@.O.f < K.z.O ;.r.9.7.Z < K.^ .                       . 1 H j . . ",
". &.R.+ )  .| { ` * l.z.X X.$.@.O.f < K.z.O ;.r.9.7.Z < K.^ .                         . 3 H 6 . ",
". &.R.+ )  .| { ` * l.z.X X.$.@.O.f < K.z.O ;.r.9.7.Z < K.^ .                           . - $ . ",
". &.R.+ )  .| { ` * l.z.X X.$.@.O.f < K.z.O ;.r.9.7.Z < K.^ .                             . .   ",
". &.R.+ )  .| { ` * l.z.X X.$.@.O.f < K.z.O ;.r.9.7.Z < K.^ .                                   ",
". &.R.+ )  .| { ` * l.z.X X.$.@.O.f < K.z.O ;.r.9.7.Z < K.^ .                                   ",
". &.R.+ )  .| { ` * l.z.X X.$.@.O.f < K.z.O ;.r.9.7.Z < K.^ .                                   ",
". &.R.+ )  .| { ` * l.z.X X.$.@.O.f < K.z.O ;.r.9.7.Z < K.^ .                                   ",
". &.R.+ )  .| { ` * l.z.X X.$.@.O.f < K.z.O ;.r.9.7.Z < K.^ .                                   ",
". &.R.+ )  .| { ` * l.z.X X.$.@.O.f < K.z.O ;.r.9.7.Z < K.^ .                                   ",
". &.R.+ ' | } [ _ * l.z.X ..#.+.+.d < K.z.O %.0.0.6.m < K.k.;                                   ",
". &.R.+ > p i u > * l.x.. y g d d : < K.x.. 5 m m M , < K.R.                                    ",
". &.R.~ l l l l l P L.U.G l l l l l ~ T.U.G l l l l l ~ Y.g.*                                   ",
". &.R.R.R.R.R.R.R.R.R.R.R.R.R.R.R.R.R.R.R.R.R.R.R.R.R.R.R.^ .                                   ",
". F &.&.&.&.&.&.&.&.&.&.&.&.&.&.&.&.&.&.&.&.&.&.&.&.&.&.&.l .                                   ",
". . . . . . . . . . . . . . . . . . . . . . . . . . . . . . .                                   "
};
