/* XPM */
static char *f866287c91c24add934c03055c695ecb_1[] = {
/* columns rows colors chars-per-pixel */
"32 32 149 2 ",
"   c None",
".  c #444C77",
"X  c #464E77",
"o  c #474E77",
"O  c #464F78",
"+  c #474F78",
"@  c #464E79",
"#  c #49527B",
"$  c #48517C",
"%  c #4A537D",
"&  c #545A7F",
"*  c #505880",
"=  c #505980",
"-  c #535A82",
";  c #535B83",
":  c #545B83",
">  c #545C81",
",  c #595F83",
"<  c #596186",
"1  c #586187",
"2  c #5D6389",
"3  c #5D6588",
"4  c #5E6488",
"5  c #616788",
"6  c #626888",
"7  c #60688A",
"8  c #61698A",
"9  c #626B8B",
"0  c #616A8C",
"q  c #626A8E",
"w  c #646C8D",
"e  c #656D8D",
"r  c #676C8D",
"t  c #666D8F",
"y  c #666C90",
"u  c #6E7393",
"i  c #6F7393",
"p  c #6D7492",
"a  c #6D7493",
"s  c #6A7194",
"d  c #6D7295",
"f  c #6E7496",
"g  c #747A98",
"h  c #747B99",
"j  c #74799A",
"k  c #777E99",
"l  c #767D9A",
"z  c #797D9D",
"x  c #797E9E",
"c  c #7B7F9F",
"v  c #7A809D",
"b  c #7A819D",
"n  c #7D839D",
"m  c #7C819F",
"M  c #7C839F",
"N  c #7D81A0",
"B  c #7F83A2",
"V  c #84879C",
"C  c #85879C",
"Z  c #8187A0",
"A  c #8186A3",
"S  c #8488A5",
"D  c #8488A6",
"F  c #8589A6",
"G  c #868AA7",
"H  c #868DA4",
"J  c #878CA5",
"K  c #888BA8",
"L  c #8B8EAA",
"P  c #8C8FAB",
"I  c #8A91A7",
"U  c #8C90AB",
"Y  c #8D93AA",
"T  c #8E93AA",
"R  c #8E91AD",
"E  c #9095AA",
"W  c #9297AB",
"Q  c #9499AD",
"!  c #969AAE",
"~  c #9498B2",
"^  c #9598B2",
"/  c #979CB0",
"(  c #979CB1",
")  c #989CB0",
"_  c #999EB3",
"`  c #9A9EB2",
"'  c #9B9DB6",
"]  c #9C9FB7",
"[  c #9D9FB7",
"{  c #9CA0B3",
"}  c #9DA0B3",
"|  c #9DA0B4",
" . c #9EA2B5",
".. c #A1A4B7",
"X. c #A3A5BC",
"o. c #A4A6BD",
"O. c #A4A8BB",
"+. c #A4A9BB",
"@. c #A6A8BE",
"#. c #A7A8BF",
"$. c #A9ABBE",
"%. c #AAABC1",
"&. c #ABABC1",
"*. c #AAACC2",
"=. c #ABACC2",
"-. c #ACAEC0",
";. c #AEAFC2",
":. c #AFAFC4",
">. c #AEB2C1",
",. c #AFB0C4",
"<. c #B0B1C4",
"1. c #B0B1C5",
"2. c #B2B3C5",
"3. c #B1B2C6",
"4. c #B2B3C7",
"5. c #B3B4C7",
"6. c #B5B8C6",
"7. c #B4B5C8",
"8. c #B6B7C9",
"9. c #B6B7CA",
"0. c #B8B8CB",
"q. c #B8B9CB",
"w. c #BBBECA",
"e. c #BABACC",
"r. c #BABBCD",
"t. c #BBBBCD",
"y. c #BDBDCF",
"u. c #BFBECF",
"i. c #C1C0D1",
"p. c #C1C1D1",
"a. c #C7C7D6",
"s. c #C7C9D3",
"d. c #C8C8D7",
"f. c #CCCFD6",
"g. c #CCCCD9",
"h. c #CDCCD9",
"j. c #D0D0DC",
"k. c #D2D2DD",
"l. c #D4D6DC",
"z. c #D6D8DD",
"x. c #D6D6E1",
"c. c #D7D6E1",
"v. c #DBDDE0",
"b. c #DFE1E4",
"n. c #E5E7E8",
"m. c #E6E7E8",
"M. c #E7E7E8",
"N. c #EAEBEB",
"B. c #EEEFEE",
/* pixels */
"                                                                ",
"                        t $                                     ",
"                  ; ( v.N.T J @                                 ",
"              0 >.N.B.B.B.6.s.z.                                ",
"              v B.B.B.B.B.B.B.B.m   < v                         ",
"                l.B.B.B.B.B.B.B.w.  ) B.b.O.k                   ",
"                T m.m.m.m.m.m.m.m.; f.m.m.m.m.l.j               ",
"          5 6 6 6 6 6 6 6 6 6 6 6 6 6 6 6 6 6 6 6 6 5           ",
"        o V V V V V V V V V V V V V V V V V V V V V V @         ",
"        o V V V V V V V V V V V V V V V V V V V V V V @         ",
"        o V V V V V V V V V V V V V V V V V V V V V V @         ",
"          & 4 u u u u u u u u u u u u u u u u u t , &           ",
"            z t.t.t.t.t.d.u.a.g.g.g.g.u.t.t.t.t.) 6             ",
"            f t.t.t.t.t.k.p.k.x.x.x.x.p.t.t.t.t.Q 4             ",
"            0 t.t.t.t.t.t.t.t.t.t.t.t.t.t.t.t.t.W >             ",
"            ; t.t.t.t.t.t.t.t.t.t.t.t.t.t.t.t.9.W #             ",
"              t.t.t.t.t.t.t.t.~ ~ t.t.t.t.t.t.3.W               ",
"              3.t.t.t.t.t.t.3.G G :.t.t.t.t.t.;.I               ",
"              X.t.t.t.t.t.t.q.t.9.N t.t.t.t.t.$.A               ",
"              ~ t.t.t.t.@.d y t.t.K ' *.t.t.t.O.k               ",
"              G t.t.t.t.t.z A t.t.G $ ,.t.t.t...p               ",
"              m t.t.t.t.@.P t.t.t.5.L t.t.t.t.| t               ",
"              j t.t.t.t.z t.t.t.t.t.t.o.t.t.t.) 6               ",
"              s t.t.t.&.P t.t.T @.t.t.P &.t.t.Q <               ",
"              2 t.t.t.9.N @.[ : N N N N 9.t.q.W ;               ",
"              $ t.t.t.t.t.t.t.R 3.t.t.t.t.t.9.W o               ",
"                q.t.t.t.t.t.t.t.t.t.t.t.t.t.3.W                 ",
"                *.t.t.t.t.t.t.t.t.t.t.t.t.t.;.J                 ",
"                [ t.t.t.t.t.t.t.t.t.t.t.t.t.| m                 ",
"                j { { { { { { { { { { { { ( W p                 ",
"                  6 t t t t t t t t t t t t 6                   ",
"                                                                "
};
