/* XPM */
static char *f866287c91c24add934c03055c695ecb_2[] = {
/* columns rows colors chars-per-pixel */
"48 48 66 1 ",
"  c None",
". c #323C6B",
"X c #36406E",
"o c #39446F",
"O c #3B4470",
"+ c #3F4973",
"@ c #424B75",
"# c #464E79",
"$ c #4C547D",
"% c #51597F",
"& c #535B82",
"* c #585F86",
"= c #576084",
"- c #5B6285",
"; c #5D6389",
": c #61678C",
"> c #656C8C",
", c #686F8F",
"< c #666C91",
"1 c #6E7495",
"2 c #707697",
"3 c #757993",
"4 c #797D95",
"5 c #737999",
"6 c #797E9E",
"7 c #7C829D",
"8 c #7E82A1",
"9 c #84879C",
"0 c #8287A0",
"q c #858AA4",
"w c #888EA5",
"e c #878BA8",
"r c #8A8DAA",
"t c #8B90A6",
"y c #8E93AA",
"u c #9195AB",
"i c #959AAE",
"p c #9597B1",
"a c #9699B2",
"s c #9A9DB3",
"d c #9DA1B5",
"f c #9EA0B8",
"g c #A1A5B7",
"h c #A2A5BB",
"j c #A6A8BD",
"k c #A9ABBE",
"l c #ABADC2",
"z c #AEB1C2",
"x c #B1B2C5",
"c c #B7B9C6",
"v c #B6B6C9",
"b c #B7B8CA",
"n c #BBBBCD",
"m c #BFBFD0",
"M c #BEC1CC",
"N c #C2C2D2",
"B c #C6C9D2",
"V c #CFD2D9",
"C c #D3D5DB",
"Z c #D5D5E0",
"A c #DBDCE2",
"S c #DFE1E4",
"D c #E1E2E5",
"F c #E7E7EC",
"G c #E6E8E8",
"H c #EDEEED",
/* pixels */
"                                                ",
"                                                ",
"                 +0>$.                          ",
"               -iDHscg&O                        ",
"            &qzAHHHB5yd7                        ",
"           iCGHHHHHHVAHAO                       ",
"           kHHHHHHHHHHHHq   $                   ",
"           -GHHHHHHHHHHHB  &Bna6                ",
"            zHHHHHHHHHHHD7 1HHHSVd=.            ",
"            >GHHHHHHHHHHHdozHHHHHHGM5o   .      ",
"        ++++#quuuuuuuuuuu7@wuuuuuuuuq@@+  .     ",
"       ;44444444444444444444444444444444;       ",
"       >99999999999999999999999999999999>       ",
"       >99999999999999999999999999999999>       ",
"       >99999999999999999999999999999999>       ",
"       >99999999999999999999999999999999>       ",
"       -33333333333333333333333333333333-       ",
"        @#555555555555555555555555551:@@        ",
"         $vnnnnnnnmmnnNNNNNNmnnnnnnngy#         ",
"         $lnnnnnnnAAnZFFFFFFAnnnnnnndw@         ",
"         $jnnnnnnnNNnNNNNNNNNnnnnnnnsq@         ",
"          snnnnnnnnnnnnnnnnnnnnnnnnni7          ",
"          unnnnnnnnnnnnnnnnnnnnnnnnbu5          ",
"          ennnnnnnnnnnnnnnnnnnnnnnnxu1          ",
"          8nnnnnnnnnnnbllbnnnnnnnnnlu,          ",
"          6nnnnnnnnnnna55annnnnnnnnku>          ",
"          5vnnnnnnnnnv0ll6vnnnnnnnnhy:          ",
"          1vnnnnnnnnnnnnb8hnnnnnnnndy;          ",
"          <xnnnnnnnxu8vnnh1bbnnnnnnst*          ",
"          ;lnnnnnnx2:$hnnn5rrxnnnnbsw%          ",
"          &lnnnnnnnx;runnxh$6vnnnnviw$          ",
"          #knnnnnnnrrzjnnh8*6nnnnnxiq+          ",
"           jnnnnnnx6lnnnnnvlxnnnnnxi0           ",
"           annnnnnaqnnnnnnnnbxnnnnli7           ",
"         . rnnnnnv<lnnnxjnnnv1vnnnki1           ",
"         . 6nnnnnp6nnnj:fnnnn6pnnnku>           ",
"         . 1nnnnnl;6xz&;11111;lnnnju-           ",
"         . -nnnnnnxlnbq<hllllxnnnngu$           ",
"         . #nnnnnnnnnnbaknnnnnnnnbdu@           ",
"           Xnnnnnnnnnnnnnnnnnnnnnbdu.           ",
"           .lnnnnnnnnnnnnnnnnnnnnvsw.           ",
"           .snnnnnnnnnnnnnnnnnnnnvi7.           ",
"            ynnnnnnnnnnnnnnnnnnnnlu2            ",
"            6xxxxxxxxxxxxxxxxxxxkiu>            ",
"            $uiiiiiiiiiiiiiiiiiiiuy$            ",
"             ;70000000000000000007;             ",
"                                                ",
"                                                "
};
