/* XPM */
static char *_10c10cab8604bd3828afbd4ec618520_2[] = {
/* columns rows colors chars-per-pixel */
"48 48 105 2 ",
"   c None",
".  c #A42B0F",
"X  c #A52B0F",
"o  c #A62B0F",
"O  c #A42C0F",
"+  c #A82C0F",
"@  c #A52B10",
"#  c #A52C10",
"$  c #A62C10",
"%  c #A42D12",
"&  c #AC2E10",
"*  c #B22F11",
"=  c #A53015",
"-  c #A8371E",
";  c #A9381F",
":  c #BC3211",
">  c #BE3212",
",  c #A83E28",
"<  c #D13614",
"1  c #D23714",
"2  c #D63814",
"3  c #DA3A13",
"4  c #D93815",
"5  c #DA3814",
"6  c #DB3814",
"7  c #DB3815",
"8  c #DA3915",
"9  c #DB3915",
"0  c #AA412A",
"q  c #AB412A",
"w  c #AA422C",
"e  c #A94531",
"r  c #AB4631",
"t  c #E54D2A",
"y  c #E64F2D",
"u  c #E74F2D",
"i  c #E8502C",
"p  c #F85733",
"a  c #F95733",
"s  c #FA5B37",
"d  c #FC5935",
"f  c #FC5A35",
"g  c #FD5A35",
"h  c #FC5A36",
"j  c #FD5A36",
"k  c #FC5B36",
"l  c #FC5D37",
"z  c #FB5E3B",
"x  c #FC5E38",
"c  c #FD5E38",
"v  c #FC5F38",
"b  c #FB5F3D",
"n  c #FC6A3C",
"m  c #FC723F",
"M  c #AF6459",
"N  c #F96342",
"B  c #FA6443",
"V  c #F76B4E",
"C  c #FC7640",
"Z  c #FC7741",
"A  c #FC7841",
"S  c #FD7841",
"D  c #FC7C42",
"F  c #F47B63",
"G  c #BE847D",
"H  c #FE9D4E",
"J  c #FEA350",
"K  c #FEA651",
"L  c #FFA651",
"P  c #FFBE5A",
"I  c #FFBF5B",
"U  c #F2826D",
"Y  c #F08C7A",
"T  c #FEC05B",
"R  c #FFC05B",
"E  c #FEC85E",
"W  c #FFC85E",
"Q  c #ED988B",
"!  c #ED998C",
"~  c #E8ACA6",
"^  c #E7AEA8",
"/  c #E8AEA8",
"(  c #BFBDCF",
")  c #C0C0D2",
"_  c #C2C9DC",
"`  c #D2D0DB",
"'  c #DED4DD",
"]  c #E0CED4",
"[  c #C2CFE6",
"{  c #C3CFE6",
"}  c #C3D4EC",
"|  c #DDD9E4",
" . c #D3DCEC",
".. c #C3E1FF",
"X. c #C4E2FF",
"o. c #C5E2FF",
"O. c #D7E5F4",
"+. c #D5E9FB",
"@. c #D6EBFB",
"#. c #D7EBFB",
"$. c #D6EAFD",
"%. c #D7EAFD",
"&. c #DAE8F8",
"*. c #D8ECFD",
"=. c #D9ECFD",
/* pixels */
"                3 9 9 9 a h h h h h h h h h h h h h h h h h h h h h h h h h h h h               ",
"              9 9 9 9 9 a h h h h h h h h h h h h h h h h h h h h h h h h h h h h               ",
"              9 9 9 9 9 a h h h h h h h h h h h h h h h h h h h h h h h h h h h h               ",
"              9 9 9 9 9 a h h h h h h h h h h h h h h h h h h h h h h h h h h h h               ",
"              9 9 9 9 9 a h h h h h h h h h h h h h h h h h h h h h h h h h h h h               ",
"              9 9 9 9 9 a h h h h h H K K K K K K K K K K K K K K K J n h h h h h               ",
"              9 9 9 9 9 a h h h h x W W W W W W W W W W W W W W W W W D h h h h h               ",
"              9 9 9 9 9 a h h h h x W W W W W W W W W W W W W W W W W D h h h h h               ",
"              9 9 9 9 9 a h h h h x W W W W W W W W W W W W W W W W W D h h h h h               ",
"              9 9 9 9 9 a h h h h x W W W W W W W W W W W W W W W W W D h h h h h               ",
"              9 9 9 9 9 a h h h h x W W W W W W W W W W W W W W W W W D h h h h h               ",
"              9 9 9 9 9 a h h h h x W W W W W W W W W W W W W W W W W D h h h h h               ",
"              9 9 9 9 9 a h h h h l P R R R R R R R R R R R R R R R P C h h h h h               ",
"              9 9 9 9 9 a h h h h h m A A A A A A A A A A A A A A A C x h h h h h               ",
"              9 9 9 9 9 a h h h h h h h h h h h h h h h h h h h h h h h h h h h h               ",
"              9 9 9 9 9 a h h h h h h h h h h h h h h h h h h h h h h h h h h h h               ",
"              9 9 9 9 9 a h h h h h h h h h h h h h h h h h h h h h h h h h h h h               ",
"              9 9 9 9 9 a h h h h h h h h h h h h h h h h h h h h h h h h h h h h               ",
"              9 9 9 9 9 a h h h h h h h h h h h h h h h h h h h h h h h h h h h h               ",
"              9 9 9 9 9 a h h h h h h h h h h h h h h h h h h h h h h h h h h h h               ",
"              9 9 9 9 9 a h h h h h h h h h h h h h h h h h h h h h h h h h h h h               ",
"              9 9 9 9 9 a h h h h h h h h h h h h h h h h h h h h h h h h h h h h               ",
"              9 9 9 9 9 a h h h h h h h F Q Q Q Q Q Q Q Q Q Q Q Y h h h h h h h h               ",
"              9 9 9 9 9 a h h h h h h h ^ &.&.&.&.&.&.&.&.&.&.&.' h h h h h h h h               ",
"              9 9 9 9 9 a h h h h h h h s N N N N N N N N N N N z h h h h h h h h               ",
"              9 9 9 9 9 a h h h h h h h b V V V V V V V V V V V B h h h h h h h h               ",
"              9 9 9 9 9 a h h h h h h h ~ | | | | | | | | | | | ] h h h h h h h h               ",
"              9 9 9 9 9 a h h h h h h h U / ^ ^ ^ ^ ^ ^ ^ ^ ^ ^ ! h h h h h h h h               ",
"              9 9 9 9 9 a h h h h h h h h h h h h h h h h h h h h h h h h h h h h               ",
"              9 9 9 9 9 a h h h h h h h h h h h h h h h h h h h h h h h h h h h h               ",
"              9 9 9 9 9 a h h h h h h h h h h h h h h h h h h h h h h h h h h h h               ",
"              9 9 9 9 9 a h h h h h h h h h h h h h h h h h h h h h h h h h h h h               ",
"              9 9 9 9 9 a h h h h h h h h h h h h h h h h h h h h h h h h h h h h               ",
"              9 9 9 9 9 a h h h h h h h h h h h h h h h h h h h h h h h h h h h h               ",
"              9 9 9 9 9 a h h h h h h h h h h h h h h h h h h h h h h h h h h h h               ",
"              9 9 9 9 1 t u u u u u u u u u u u u u u u u u u u u u u u u u u u i               ",
"              9 2 : + . . . . . . . . . . . . . . . . . . . . . . . . . . . . . .               ",
"              1 * . . . . . . . . . . . . . . . . . . . . . . . . . . . . . . . .               ",
"              : . . . - q q q q q q q q q q q q q q q q q q q q q q q q q q q q ;               ",
"              & . = G O.=.=.=.=.=.=.=.=.=.=.=.=.=.=.=.=.=.=.=.=.=.=.=.=.=.=.=.=.#.              ",
"              . . w ` =.=.=.=.=.=.=.=.=.=.=.=.=.=.=.=.=.=.=.=.=.=.=.=.=.=.=.=.=.#.              ",
"              . . r  .$.$.$.$.$.$.$.$.$.$.$.$.$.$.$.$.$.$.$.$.$.$.$.$.$.$.$.$.$.#.              ",
"              . . r } X.X.X.X.X.X.X.X.X.X.X.X.X.X.X.X.X.X.X.X.X.X.X.X.X.X.X.X.X...              ",
"              . . , ) X.X.X.X.X.X.X.X.X.X.X.X.X.X.X.X.X.X.X.X.X.X.X.X.X.X.X.X.X...              ",
"              . . $ M ( [ [ [ [ [ [ [ [ [ [ [ [ [ [ [ [ [ [ [ [ [ [ [ [ [ [ [ [ _               ",
"                . . . . . . . . . . . . . . . . . . . . . . . . . . . . . . . . $               ",
"                @ O . . . . . . . . . . . . . . . . . . . . . . . . . . . . . . .               ",
"                    $ . . . . . . . . . . . . . . . . . . . . . . . . . . . . . .               "
};
