/* XPM */
static char *_10c10cab8604bd3828afbd4ec618520_1[] = {
/* columns rows colors chars-per-pixel */
"32 32 63 1 ",
"  c None",
". c #A42A0F",
"X c #A42B0F",
"o c #A52B0F",
"O c #A62B0F",
"+ c #A52C10",
"@ c #A52F14",
"# c #AA2C10",
"$ c #AF2E10",
"% c #A8381F",
"& c #A9381F",
"* c #D23614",
"= c #D73714",
"- c #DA3915",
"; c #DB3915",
": c #A8402A",
"> c #AD4A36",
", c #EE522F",
"< c #EE5330",
"1 c #EF5330",
"2 c #FA5834",
"3 c #FB5834",
"4 c #FC5A36",
"5 c #FD5A36",
"6 c #FC5B36",
"7 c #FC5C37",
"8 c #FB5D3B",
"9 c #FA5F3D",
"0 c #FB5F3D",
"q c #FC703E",
"w c #B37772",
"e c #BA7C74",
"r c #F8684A",
"t c #F47A61",
"y c #FD8445",
"u c #FD8746",
"i c #FC8846",
"p c #FD8846",
"a c #FD9A4D",
"s c #FEAC54",
"d c #FEAF55",
"f c #FFAF55",
"g c #EF8C7A",
"h c #F18570",
"j c #F18875",
"k c #F08C7A",
"l c #FEC85E",
"z c #FFC85E",
"x c #E8ADA7",
"c c #E6B4B1",
"v c #C0C0D3",
"b c #DED4DC",
"n c #D6DFED",
"m c #C2D6F0",
"M c #C3D6F0",
"N c #DAE1EE",
"B c #DBE1EE",
"V c #C4E2FF",
"C c #C5E2FF",
"Z c #D6EBFD",
"A c #D7EBFD",
"S c #D8ECFD",
"D c #D9ECFD",
/* pixels */
"     ---2444444444444444444     ",
"     ---2444444444444444444     ",
"     ---2444444444444444444     ",
"     ---2444yppppppppppq444     ",
"     ---2447zzzzzzzzzzza444     ",
"     ---2447zzzzzzzzzzza444     ",
"     ---2447zzzzzzzzzzza444     ",
"     ---2447zzzzzzzzzzza444     ",
"     ---2444sssssssssssp444     ",
"     ---2444444444444444444     ",
"     ---2444444444444444444     ",
"     ---2444444444444444444     ",
"     ---2444444444444444444     ",
"     ---2444444444444444444     ",
"     ---2444444444444444444     ",
"     ---24444jBBBBBBBb44444     ",
"     ---2444449999999844444     ",
"     ---24444tcccccccx44444     ",
"     ---24444rkggggggh44444     ",
"     ---2444444444444444444     ",
"     ---2444444444444444444     ",
"     ---2444444444444444444     ",
"     ---2444444444444444444     ",
"     --=,111111111111111111     ",
"     *$XXXXXXXXXXXXXXXXXXXX     ",
"     #X@%%%%%%%%%%%%%%%%%%%     ",
"     X>nSSSSSSSSSSSSSSSSSSS     ",
"     XeAAAAAAAAAAAAAAAAAAAA     ",
"     XwCCCCCCCCCCCCCCCCCCCC     ",
"     X:vMMMMMMMMMMMMMMMMMMM     ",
"     XXXXXXXXXXXXXXXXXXXXXX     ",
"      X+XXXXXXXXXXXXXXXXXXX     "
};
